<svg width="1440" height="394" viewBox="0 0 1440 394" fill="none" xmlns="http://www.w3.org/2000/svg">
<path d="M1411 420C1248.41 232.243 1173.3 164.664 1038.67 284.587C885.824 141.598 828.048 189.687 664 338.803C582.005 221.944 550.549 173.43 512.557 246.542C419.007 87.6372 367.593 35.6337 289.216 174.026C280.721 188.993 269.453 200.08 256.757 205.966C244.06 211.852 230.47 212.286 217.609 207.22C99.6065 160.493 -13.7858 356.166 -83 420H1411Z" fill="#5865F2"/>
<path d="M1331.1 379.306C1328.85 376.326 1325.36 374.793 1321.2 374.793C1317.67 374.876 1314.16 375.737 1310.79 377.348L1308.54 378.455C1308.61 375.984 1308.42 373.513 1307.98 371.131C1306.74 363.638 1303.48 357.506 1298.59 353.334C1291.28 347.032 1280.98 346.01 1271.14 350.524C1269.21 351.386 1267.33 352.469 1265.51 353.76C1264.67 349.616 1263.5 345.642 1262.03 341.923C1253.19 319.442 1234.86 306.242 1221.13 312.544C1215.28 315.184 1210.89 321.23 1208.81 329.405C1206.11 339.964 1207.29 352.993 1212.13 365.256C1219.27 383.564 1233 396.167 1245.6 396.252C1245.71 397.36 1245.83 398.467 1245.99 399.488C1246.36 401.525 1246.87 403.495 1247.51 405.364H1248.81C1248.05 403.396 1247.48 401.274 1247.12 399.063C1246.91 397.832 1246.76 396.58 1246.67 395.316C1246.66 395.105 1246.59 394.91 1246.48 394.768C1246.38 394.627 1246.25 394.549 1246.11 394.549H1245.71C1233.45 394.549 1220.06 382.202 1213.09 364.404C1208.48 352.567 1207.29 340.049 1209.83 330.001C1211.79 322.337 1215.96 316.717 1221.47 314.162C1234.69 308.116 1252.46 320.974 1261.07 342.774C1262.59 346.679 1263.78 350.856 1264.61 355.207C1264.68 355.435 1264.8 355.616 1264.95 355.718C1265.1 355.804 1265.25 355.804 1265.4 355.718C1267.36 354.277 1269.39 353.082 1271.47 352.142C1281.04 347.799 1290.94 348.735 1298.03 354.781C1302.64 358.784 1305.73 364.574 1306.91 371.557C1307.37 374.193 1307.53 376.931 1307.36 379.647C1307.37 379.937 1307.45 380.212 1307.59 380.413C1307.67 380.511 1307.76 380.571 1307.86 380.586C1307.96 380.602 1308.06 380.571 1308.15 380.499L1311.13 378.966C1319.34 375.219 1326.71 375.815 1330.37 380.584C1332.34 383.053 1333.13 386.545 1332.73 390.632C1332.34 394.72 1330.48 400.51 1327.61 405.364H1329.08C1331.72 400.595 1333.46 395.571 1333.86 390.888C1334.25 386.204 1333.35 382.117 1331.1 379.306Z" fill="#808AFF"/>
<path d="M23.5692 170.568C72.6756 133.099 107.382 162.138 107.382 162.138C131.682 150.727 153.057 158.731 164.138 171.76C171.001 179.935 155.588 178.488 120.994 178.488H24.8629C24.1319 178.488 23.4309 178.048 22.914 177.266C22.3971 176.483 22.1067 175.422 22.1067 174.315C22.1112 173.551 22.2487 172.802 22.5056 172.144C22.7623 171.486 23.1292 170.943 23.5692 170.568Z" fill="#5865F2"/>
<path d="M458.719 36.0212C471.151 26.4837 479.926 33.8923 479.926 33.8923C486.057 30.997 491.513 33.0407 494.269 36.2767C496.013 38.4056 492.132 37.9798 483.357 37.9798H459.001C458.822 37.9798 458.65 37.8725 458.523 37.6809C458.396 37.4893 458.326 37.2287 458.326 36.9579C458.324 36.7612 458.361 36.5679 458.431 36.4019C458.501 36.2358 458.601 36.103 458.719 36.0212Z" fill="#5865F2"/>
<path d="M1362.43 53.2228C1362.35 45.8295 1360.58 38.7071 1357.42 33.0706C1354.26 27.4341 1349.9 23.6336 1345.09 22.3171C1340.29 21.0005 1335.33 22.2498 1331.07 25.8519C1326.8 29.4531 1323.49 35.185 1321.71 42.0673C1320.14 41.5513 1318.53 41.2941 1316.92 41.3009C1313.7 41.2856 1310.51 42.3467 1307.58 44.4066C1304.66 46.4674 1302.06 49.4768 1299.99 53.2228H1362.43Z" fill="#5865F2"/>
<path d="M232.313 51.1791C228.939 51.1816 225.615 52.4223 222.627 54.7948C219.639 57.1681 217.076 60.6025 215.157 64.8041C207.648 59.6257 199.316 57.8196 191.149 59.601C182.982 61.3825 175.326 66.6758 169.088 74.8525H252.507C251.339 68.0851 248.725 62.0927 245.072 57.811C241.419 53.5285 236.933 51.197 232.313 51.1791Z" fill="#5865F2"/>
<path d="M1218.15 113.684C1219.56 113.707 1220.96 113.256 1222.24 112.365C1223.53 111.472 1224.66 110.161 1225.58 108.524C1226.48 106.888 1227.14 104.967 1227.5 102.9C1227.86 100.832 1227.92 98.6698 1227.66 96.5673C1224.96 74.5595 1217.6 54.478 1206.71 39.3542C1195.81 24.2305 1181.95 14.8863 1167.24 12.7327C1152.52 10.5782 1137.74 15.7319 1125.13 27.4145C1112.52 39.097 1102.76 56.6741 1097.33 77.4923C1092.3 75.8496 1087.17 75.0211 1082.03 75.0228C1072.14 74.9981 1062.36 78.0986 1053.32 84.1251C1044.27 90.1516 1036.15 98.9721 1029.49 110.022C1029.31 110.34 1029.19 110.728 1029.15 111.143C1029.11 111.557 1029.14 111.981 1029.26 112.365C1029.37 112.749 1029.55 113.077 1029.78 113.31C1030.01 113.543 1030.28 113.673 1030.56 113.684H1218.15Z" fill="#5865F2"/>
<path d="M967.838 404.833H966.713C967.163 385.588 964.8 373.07 959.456 366.683C954.113 360.296 945.169 359.87 932.625 365.746C932.473 365.805 932.31 365.774 932.175 365.661C932.034 365.522 931.933 365.309 931.894 365.065C931.545 361.642 930.617 358.413 929.194 355.696C927.776 352.98 925.914 350.868 923.794 349.566C918.394 346.245 911.7 348.119 905.963 354.506C892.013 369.919 893.531 397.509 893.531 397.765C893.531 397.94 893.503 398.113 893.441 398.264C893.385 398.415 893.295 398.536 893.194 398.616C893.093 398.698 892.98 398.726 892.868 398.695C892.755 398.663 892.648 398.576 892.575 398.446C885.319 388.653 880.256 384.821 876.15 385.928C872.044 387.035 868.331 393.677 864.113 404.833H862.819C867.375 392.741 871.088 385.502 875.925 384.225C880.763 382.948 885.319 386.695 892.35 395.892C892.294 389.079 893.081 366.683 905.288 353.143C911.363 346.416 918.45 344.457 924.188 348.034C926.398 349.339 928.356 351.466 929.88 354.22C931.404 356.973 932.445 360.264 932.906 363.788C945.506 358.082 954.394 358.593 960.131 365.406C965.869 372.218 968.288 384.992 967.838 404.833Z" fill="#808AFF"/>
<path d="M335.531 107.212C334.649 106.376 333.899 105.255 333.335 103.931C332.772 102.606 332.407 101.11 332.269 99.5478L331.706 94.0978C331.693 93.9777 331.651 93.8687 331.589 93.7904C331.527 93.712 331.449 93.6703 331.369 93.672C331.288 93.6703 331.21 93.712 331.148 93.7904C331.086 93.8687 331.044 93.9777 331.031 94.0978L330.469 99.5478C330.319 101.104 329.95 102.595 329.387 103.916C328.825 105.239 328.08 106.363 327.206 107.212L326.756 107.638C326.702 107.673 326.657 107.733 326.626 107.81C326.596 107.886 326.582 107.975 326.587 108.063C326.582 108.152 326.596 108.241 326.626 108.317C326.657 108.394 326.702 108.454 326.756 108.489L327.206 108.915C328.078 109.79 328.818 110.931 329.38 112.267C329.942 113.601 330.312 115.099 330.469 116.664L331.031 122.029C331.044 122.149 331.086 122.258 331.148 122.336C331.21 122.415 331.288 122.456 331.369 122.455C331.449 122.456 331.527 122.415 331.589 122.336C331.651 122.258 331.693 122.149 331.706 122.029L332.269 116.664C332.414 115.095 332.781 113.59 333.344 112.253C333.906 110.916 334.653 109.778 335.531 108.915L335.981 108.489C336.035 108.454 336.08 108.394 336.111 108.317C336.141 108.241 336.154 108.152 336.15 108.063C336.154 107.975 336.141 107.886 336.111 107.81C336.08 107.733 336.035 107.673 335.981 107.638L335.531 107.212Z" fill="#91FFAD"/>
<path d="M951.806 23.0775C950.316 21.617 949.05 19.6916 948.088 17.4299C947.126 15.169 946.496 12.6228 946.238 9.96339L945.338 0.766512C945.304 0.556176 945.225 0.36799 945.113 0.230037C945 0.0920836 944.859 0.0111815 944.719 0.000111213C944.573 -0.00329504 944.432 0.0716364 944.314 0.212144C944.201 0.3518 944.128 0.548512 944.1 0.766512L943.2 9.96339C942.93 12.6288 942.289 15.1767 941.321 17.4376C940.348 19.6985 939.071 21.6213 937.575 23.0775L936.788 23.8439C936.703 23.9324 936.636 24.0465 936.591 24.1794C936.54 24.3114 936.512 24.4587 936.506 24.6103C936.506 24.7635 936.534 24.9126 936.585 25.0463C936.63 25.18 936.703 25.2932 936.788 25.3767L937.575 26.1431C939.077 27.6171 940.354 29.5553 941.321 31.8298C942.289 34.1052 942.93 36.6658 943.2 39.3423L944.1 48.5392C944.128 48.7572 944.201 48.9539 944.314 49.0944C944.432 49.234 944.573 49.309 944.719 49.3056C944.859 49.2945 945 49.2136 945.113 49.0765C945.225 48.9386 945.304 48.7504 945.338 48.5392L946.238 39.3423C946.496 36.6709 947.126 34.1128 948.088 31.8375C949.044 29.5621 950.316 27.6214 951.806 26.1431L952.65 25.3767C952.729 25.289 952.791 25.1731 952.83 25.0386C952.869 24.9041 952.886 24.7567 952.875 24.6103C952.881 24.4646 952.864 24.3199 952.824 24.187C952.785 24.0542 952.723 23.9367 952.65 23.8439L951.806 23.0775Z" fill="#3F99F2"/>
<path d="M1228.33 221.492C1227.12 220.304 1226.1 218.739 1225.32 216.904C1224.55 215.068 1224.04 213.004 1223.83 210.847L1223.04 203.438C1223.04 203.258 1223 203.084 1222.91 202.956C1222.83 202.829 1222.71 202.757 1222.59 202.757C1222.47 202.756 1222.35 202.825 1222.26 202.951C1222.16 203.077 1222.1 203.25 1222.09 203.438L1221.36 210.847C1221.14 213.009 1220.62 215.077 1219.84 216.912C1219.05 218.747 1218.01 220.308 1216.8 221.492L1216.18 222.088C1216.12 222.158 1216.06 222.248 1216.03 222.35C1215.99 222.453 1215.96 222.566 1215.96 222.684C1215.96 222.805 1215.97 222.923 1216.02 223.028C1216.06 223.133 1216.11 223.219 1216.18 223.28L1216.8 223.876C1218.01 225.067 1219.04 226.631 1219.83 228.465C1220.61 230.298 1221.13 232.362 1221.36 234.52L1222.09 241.929C1222.1 242.117 1222.16 242.291 1222.26 242.417C1222.35 242.543 1222.47 242.612 1222.59 242.61C1222.71 242.61 1222.83 242.539 1222.91 242.411C1223 242.283 1223.04 242.11 1223.04 241.929L1223.83 234.52C1224.04 232.368 1224.56 230.306 1225.33 228.473C1226.11 226.638 1227.13 225.072 1228.33 223.876L1228.95 223.28C1229.02 223.228 1229.09 223.143 1229.12 223.035C1229.16 222.929 1229.18 222.806 1229.17 222.684C1229.17 222.563 1229.15 222.444 1229.11 222.34C1229.07 222.235 1229.02 222.148 1228.95 222.088L1228.33 221.492Z" fill="#404EED"/>
<path d="M506.756 224.557C506.299 224.117 505.911 223.53 505.619 222.839C505.328 222.148 505.14 221.368 505.069 220.555L504.787 217.83C504.787 217.763 504.769 217.697 504.738 217.649C504.706 217.602 504.663 217.574 504.619 217.574C504.574 217.574 504.531 217.602 504.499 217.649C504.467 217.697 504.45 217.763 504.45 217.83L504.169 220.555C504.097 221.368 503.909 222.148 503.617 222.839C503.326 223.53 502.938 224.117 502.481 224.557L502.2 224.813C502.144 224.813 502.144 224.983 502.144 225.068C502.141 225.114 502.145 225.161 502.154 225.204C502.164 225.249 502.179 225.29 502.2 225.324L502.481 225.494C502.926 225.955 503.305 226.546 503.595 227.234C503.885 227.922 504.08 228.691 504.169 229.496L504.45 232.306C504.45 232.374 504.467 232.439 504.499 232.487C504.531 232.535 504.574 232.562 504.619 232.562C504.663 232.562 504.706 232.535 504.738 232.487C504.769 232.439 504.787 232.374 504.787 232.306L505.069 229.496C505.157 228.691 505.352 227.922 505.642 227.234C505.932 226.546 506.311 225.955 506.756 225.494L507.037 225.324C507.058 225.29 507.073 225.249 507.083 225.204C507.093 225.161 507.096 225.114 507.094 225.068C507.094 224.983 507.094 224.813 507.037 224.813L506.756 224.557Z" fill="#FF78B9"/>
<path d="M530.494 333.813C530.26 333.602 530.06 333.318 529.904 332.981C529.749 332.643 529.643 332.259 529.594 331.854L529.481 330.406H529.313L529.144 331.854C529.104 332.253 529.008 332.635 528.863 332.973C528.717 333.311 528.525 333.597 528.3 333.813L528.188 333.983C528.172 333.983 528.158 333.992 528.148 334.008C528.137 334.024 528.131 334.046 528.131 334.068C528.131 334.091 528.137 334.112 528.148 334.129C528.158 334.145 528.172 334.153 528.188 334.153L528.3 334.324C528.525 334.539 528.717 334.826 528.863 335.164C529.008 335.502 529.104 335.884 529.144 336.282L529.313 337.73H529.481L529.594 336.282C529.643 335.878 529.749 335.494 529.904 335.156C530.06 334.818 530.26 334.535 530.494 334.324L530.606 334.153L530.494 333.813Z" fill="#FFC619"/>
<path d="M768.262 325.808C767.756 325.291 767.329 324.624 767.002 323.848C766.671 323.073 766.451 322.204 766.35 321.295L766.069 318.229C766.069 318.059 765.956 317.974 765.844 317.974C765.821 317.974 765.799 317.98 765.776 317.993C765.759 318.006 765.742 318.025 765.726 318.048C765.709 318.072 765.697 318.1 765.686 318.131C765.681 318.163 765.675 318.196 765.675 318.229L765.337 321.295C765.259 322.205 765.056 323.079 764.736 323.858C764.415 324.636 763.987 325.302 763.481 325.808L763.2 326.063C763.144 326.063 763.087 326.149 763.087 326.319C763.087 326.404 763.144 326.489 763.2 326.574L763.481 326.83C763.976 327.331 764.398 327.984 764.719 328.747C765.039 329.509 765.247 330.365 765.337 331.258L765.675 334.323C765.675 334.392 765.692 334.456 765.726 334.504C765.754 334.553 765.799 334.579 765.844 334.579C765.956 334.579 766.069 334.494 766.069 334.323L766.35 331.258C766.457 330.364 766.682 329.512 767.008 328.752C767.34 327.991 767.762 327.337 768.262 326.83L768.544 326.574C768.566 326.54 768.577 326.499 768.589 326.455C768.6 326.412 768.6 326.365 768.6 326.319C768.6 326.149 768.6 326.063 768.544 326.063L768.262 325.808Z" fill="#91FFAD"/>
<path d="M185.681 305.711C185.14 305.158 184.681 304.44 184.333 303.605C183.984 302.77 183.753 301.834 183.656 300.857L183.319 297.451C183.262 297.281 183.206 297.11 183.094 297.11C183.034 297.11 182.977 297.146 182.934 297.21C182.892 297.274 182.869 297.361 182.869 297.451L182.531 300.857C182.423 301.84 182.183 302.777 181.825 303.613C181.466 304.448 180.998 305.163 180.45 305.711L180.112 305.966C180.056 306.052 180.056 306.137 180.056 306.307C180.056 306.392 180.056 306.563 180.112 306.563L180.45 306.903C181.003 307.444 181.475 308.157 181.834 308.993C182.192 309.83 182.43 310.772 182.531 311.757L182.869 315.163C182.869 315.334 182.981 315.419 183.094 315.419C183.206 315.419 183.262 315.334 183.319 315.163L183.656 311.757C183.747 310.777 183.975 309.838 184.324 309.001C184.673 308.163 185.136 307.449 185.681 306.903L186.019 306.563C186.075 306.563 186.131 306.392 186.131 306.307C186.131 306.242 186.121 306.176 186.101 306.117C186.082 306.058 186.054 306.006 186.019 305.966L185.681 305.711Z" fill="#FF78B9"/>
<g clip-path="url(#clip0_22_13)">
<path d="M1472.3 240.5H1036.7V376.4H1472.3V240.5Z" fill="#5865F2"/>
<path d="M1036.7 282.5L1472.3 247.4V240.5H1036.7V282.5Z" fill="#4B59F2"/>
<path d="M1433 240.5H1429.8V376.4H1433V240.5Z" fill="#3543DE"/>
<path d="M1393.7 240.5H1390.5V376.4H1393.7V240.5Z" fill="#3543DE"/>
<path d="M1354.4 240.5H1351.2V376.4H1354.4V240.5Z" fill="#3543DE"/>
<path d="M1315 240.5H1311.8V376.4H1315V240.5Z" fill="#3543DE"/>
<path d="M1275.7 240.5H1272.5V376.4H1275.7V240.5Z" fill="#3543DE"/>
<path d="M1236.4 240.5H1233.2V376.4H1236.4V240.5Z" fill="#3543DE"/>
<path d="M1197.1 240.5H1193.9V376.4H1197.1V240.5Z" fill="#3543DE"/>
<path d="M1157.8 240.5H1154.6V376.4H1157.8V240.5Z" fill="#3543DE"/>
<path d="M1118.5 240.5H1115.3V376.4H1118.5V240.5Z" fill="#3543DE"/>
<path d="M1079.2 240.5H1076V376.4H1079.2V240.5Z" fill="#3543DE"/>
<path d="M1039.9 240.5H1036.7V376.4H1039.9V240.5Z" fill="#3543DE"/>
<path d="M1154.9 114.8C1150.8 101.2 1148.6 94.7 1156 90.7C1163.4 86.7 1185.9 89.4 1196.4 91.9C1206.9 94.4 1208.4 97 1201.5 107.3L1154.9 114.8Z" fill="#FFF4B3"/>
<path d="M1150.1 237.1C1148.5 196.7 1149.5 163.1 1150.8 145.2C1144.1 140.8 1141 137.4 1139.7 135.5C1139.43 135.134 1139.29 134.687 1139.31 134.232C1139.33 133.778 1139.5 133.343 1139.8 133C1150.4 119.7 1159.5 108.1 1169 102.7C1178.5 97.3 1191.5 95.9 1212.2 116.5C1212.4 116.764 1212.5 117.089 1212.48 117.418C1212.46 117.748 1212.33 118.06 1212.1 118.3C1210.46 119.932 1208.72 121.468 1206.9 122.9C1211.1 130.4 1217.2 141.8 1217.2 141.8H1222C1225.08 141.8 1228.03 143.022 1230.2 145.198C1232.38 147.373 1233.6 150.323 1233.6 153.4C1233.7 162.7 1231.5 173.9 1227.2 188.3C1246.4 203.9 1241.7 237 1241.7 237L1150.1 237.1Z" fill="#29CC7A"/>
<path d="M1227.2 188.3C1227.8 186.2 1228.4 184.3 1228.9 182.3L1213.8 190.7C1213.8 190.7 1189.9 174.6 1149.8 164.6C1149.1 183.2 1149 208.4 1150.1 237.1H1241.7C1241.7 237.1 1246.4 203.9 1227.2 188.3Z" fill="#8CD9FF"/>
<path d="M1231 192C1229.83 190.667 1228.56 189.43 1227.2 188.3C1227.8 186.2 1228.4 184.3 1228.9 182.3L1213.8 190.7C1213.8 190.7 1189.9 174.6 1149.8 164.6C1149.7 166.9 1149.6 169.4 1149.6 171.9C1180.3 184.6 1196.8 206.4 1198.7 237.1H1221.4C1225.4 219.5 1228.6 204.1 1231 192Z" fill="#BAE8FF"/>
<path d="M1161.9 152.9H1162.3C1162.5 152.7 1162.7 152.6 1162.8 152.3L1171.5 124.2C1171.56 124.082 1171.59 123.953 1171.6 123.821C1171.6 123.69 1171.57 123.559 1171.52 123.439C1171.47 123.318 1171.39 123.21 1171.29 123.123C1171.19 123.036 1171.08 122.972 1170.95 122.935C1170.82 122.898 1170.69 122.889 1170.56 122.908C1170.43 122.928 1170.31 122.976 1170.2 123.049C1170.09 123.122 1170 123.218 1169.93 123.331C1169.86 123.443 1169.82 123.569 1169.8 123.7L1161.4 150.9C1157.77 149.352 1154.29 147.477 1151 145.3H1150.8C1150.8 145.9 1150.7 146.6 1150.7 147.2C1154.16 149.423 1157.8 151.331 1161.6 152.9H1161.9Z" fill="black"/>
<path d="M1199.1 107.7L1163.3 110.3C1203.3 117.9 1205 119 1199.1 107.7Z" fill="black"/>
<path d="M1218.9 212.5L1215.1 177C1215.03 176.373 1214.72 175.797 1214.23 175.389C1213.75 174.981 1213.13 174.77 1212.5 174.8H1208.7L1207 171.5C1206.48 170.591 1205.64 169.9 1204.65 169.552C1203.66 169.203 1202.58 169.22 1201.6 169.6C1200.59 170.029 1199.77 170.811 1199.3 171.8C1191.8 187.9 1188.1 214.4 1187.4 219.4C1187.39 219.634 1187.44 219.867 1187.57 220.065C1187.7 220.263 1187.88 220.415 1188.1 220.5L1209.7 227.4C1209.82 227.463 1209.96 227.489 1210.09 227.476C1210.23 227.463 1210.36 227.41 1210.46 227.326C1210.57 227.241 1210.65 227.127 1210.69 226.998C1210.73 226.869 1210.74 226.731 1210.7 226.6L1209.9 216.5L1217.9 214C1218.22 213.908 1218.49 213.707 1218.67 213.432C1218.86 213.158 1218.94 212.828 1218.9 212.5Z" fill="#EB459F"/>
<path d="M1200.4 184.2L1197.1 218.7" stroke="#D11583" stroke-width="2" stroke-miterlimit="10" stroke-linecap="round"/>
<path d="M1190.15 133.711C1191.54 133.153 1191.79 130.541 1190.71 127.878C1189.63 125.216 1187.64 123.51 1186.26 124.068C1184.88 124.627 1184.63 127.238 1185.7 129.901C1186.78 132.564 1188.77 134.27 1190.15 133.711Z" fill="black"/>
<path d="M1200.46 139.24C1202.25 135.872 1202.03 132.262 1199.98 131.177C1197.93 130.091 1194.82 131.942 1193.04 135.309C1191.26 138.677 1191.47 142.287 1193.52 143.373C1195.57 144.458 1198.68 142.608 1200.46 139.24Z" stroke="white" stroke-width="2" stroke-miterlimit="10"/>
<path d="M1215.19 139.26C1216.97 135.893 1216.75 132.283 1214.7 131.197C1212.65 130.112 1209.55 131.962 1207.76 135.33C1205.98 138.698 1206.2 142.308 1208.25 143.393C1210.3 144.478 1213.4 142.628 1215.19 139.26Z" stroke="white" stroke-width="2" stroke-miterlimit="10"/>
<path d="M1205.07 133.228C1206 132.856 1205.91 130.479 1204.87 127.918C1203.84 125.358 1202.25 123.584 1201.33 123.957C1200.41 124.329 1200.5 126.706 1201.53 129.267C1202.57 131.827 1204.15 133.601 1205.07 133.228Z" fill="black"/>
<path d="M1214.6 159.4C1206.88 159.425 1199.39 156.775 1193.4 151.9C1187.2 146.8 1189.7 146.2 1193.6 146.1C1197.5 146 1216.2 146.7 1221.6 147.5C1227 148.3 1228 159 1214.6 159.4Z" fill="#912869"/>
<path d="M1214.6 159.4C1206.88 159.425 1199.39 156.775 1193.4 151.9C1187.2 146.8 1189.7 146.2 1193.6 146.1C1197.5 146 1216.2 146.7 1221.6 147.5C1227 148.3 1228 159 1214.6 159.4Z" fill="#611B46"/>
<path d="M1214.2 170.6L1213.8 166.9C1216.63 166.675 1219.38 165.893 1221.9 164.6" stroke="black" stroke-width="2" stroke-linecap="round" stroke-linejoin="round"/>
<path d="M1218.3 158.9C1212.9 153.7 1205.6 149.8 1192.1 150.7C1203.7 161.4 1215.8 159.6 1218.3 158.9Z" fill="#EB459F"/>
<path d="M1201.1 135.7H1207.2" stroke="white" stroke-width="2" stroke-miterlimit="10"/>
<path d="M1191.9 136.9L1166.1 126.4C1165.56 126.19 1164.98 126.115 1164.4 126.179C1163.82 126.244 1163.27 126.447 1162.79 126.771C1162.31 127.095 1161.91 127.531 1161.64 128.041C1161.36 128.551 1161.21 129.12 1161.2 129.7C1161.19 130.383 1161.38 131.053 1161.76 131.624C1162.13 132.194 1162.67 132.639 1163.3 132.9L1165 133.7" stroke="white" stroke-width="2" stroke-miterlimit="10" stroke-linecap="round"/>
<path d="M1186.5 123.8C1188.53 123.852 1190.56 123.582 1192.5 123" stroke="black" stroke-width="2" stroke-miterlimit="10" stroke-linecap="round"/>
<path d="M1201.5 123.8C1202.78 123.833 1204.05 123.559 1205.2 123" stroke="black" stroke-width="2" stroke-miterlimit="10" stroke-linecap="round"/>
<path d="M1158.3 111.3C1194 110.8 1206.1 106.8 1216.3 103.1C1226.5 99.3999 1225.5 96.4999 1217.7 96.7999C1209.9 97.0999 1183.2 107.3 1158.3 111.3Z" fill="#FFF4B3"/>
<path d="M1149.5 175.1L1149.3 184.9L1154.2 183C1154.2 183 1180.3 172.1 1186.5 170.6C1192.7 169.1 1198.6 172 1207.5 175.4C1216.4 178.8 1214.1 181.9 1211.3 184.9C1208.5 187.9 1208.6 187.7 1193.9 187.7C1165.8 208 1157.2 219.9 1145.7 219.9C1138.8 219.9 1132.9 216.8 1128.5 203.2C1124.1 189.6 1132.3 183.4 1149.5 175.1Z" fill="#29CC7A"/>
<path d="M1247.4 186.3L1232.4 168.2L1206.8 193.7L1224.9 208.8C1224.7 210.5 1224.9 211.8 1225.8 212.7C1228.5 215.4 1236.4 211.9 1243.5 204.9C1250.6 197.9 1254 189.9 1251.3 187.2C1250.4 186.3 1249.1 186.1 1247.4 186.3Z" fill="white"/>
<path d="M1222.96 184.378C1229.99 177.348 1234.17 170.13 1232.3 168.256C1230.42 166.381 1223.21 170.56 1216.18 177.59C1209.15 184.619 1204.97 191.837 1206.84 193.712C1208.72 195.586 1215.94 191.407 1222.96 184.378Z" fill="white"/>
<path d="M1221.23 182.664C1227.59 176.298 1231.87 170.251 1230.77 169.158C1229.68 168.064 1223.63 172.338 1217.27 178.704C1210.9 185.069 1206.63 191.116 1207.72 192.21C1208.81 193.303 1214.86 189.029 1221.23 182.664Z" fill="#BAE8FF"/>
<path d="M1246 178.7C1250.3 179.3 1252 183.2 1250.3 188.4C1250.11 188.954 1249.78 189.448 1249.34 189.835C1248.9 190.223 1248.36 190.49 1247.79 190.61C1247.22 190.731 1246.62 190.702 1246.06 190.525C1245.5 190.347 1245 190.029 1244.6 189.6C1243.61 188.551 1243.01 187.194 1242.9 185.756C1242.79 184.318 1243.18 182.887 1244 181.7L1246 178.7Z" fill="#29CC7A"/>
<path d="M1238.5 175.7C1238.3 179.4 1236.1 183.1 1234.5 185.5C1234.07 186.173 1233.87 186.972 1233.95 187.768C1234.02 188.565 1234.36 189.315 1234.9 189.9L1235.7 190.6C1235.96 190.866 1236.27 191.077 1236.62 191.222C1236.96 191.366 1237.33 191.44 1237.7 191.44C1238.07 191.44 1238.44 191.366 1238.79 191.222C1239.13 191.077 1239.44 190.866 1239.7 190.6C1242.71 187.85 1244.84 184.264 1245.8 180.3C1247 174.9 1243.1 171.1 1236.3 172.9L1238.5 175.7Z" fill="#29CC7A"/>
<path d="M1158.3 111.3L1170.5 110.3L1199.8 104.5L1192.5 97.2999H1157.6L1158.3 111.3Z" fill="#FFF4B3"/>
<path d="M1217.4 148.2L1210.4 147.8C1211.2 152 1213.2 154.2 1214.9 153.5C1216.6 152.8 1217.2 149.1 1217.4 148.2Z" fill="white"/>
<path d="M1195.8 147.3C1196.7 152.1 1198.5 154.6 1200.2 153.8C1201.9 153 1202.3 149 1202.6 147.4L1195.8 147.3Z" fill="white"/>
<path d="M1488.4 240.5H1027.3" stroke="#2835BD" stroke-width="8" stroke-linecap="round" stroke-linejoin="round"/>
<path d="M1207.4 191.7C1207.48 191.906 1207.62 192.082 1207.8 192.2C1207.9 192.2 1207.9 192.2 1207.9 192.3C1207.9 192.4 1215.1 188.8 1221.3 182.6V182.4L1217.4 178.6L1214.2 175.3L1210 175.5L1201.8 172.4L1201.5 173.1C1205 174.3 1205.7 186.9 1207.4 191.7Z" fill="#EB459F"/>
<path d="M1208.7 174.9C1210.39 178.316 1211.89 181.821 1213.2 185.4C1213.27 185.561 1213.38 185.702 1213.52 185.807C1213.66 185.912 1213.83 185.979 1214 186H1214.3C1214.51 185.912 1214.69 185.756 1214.79 185.556C1214.9 185.355 1214.94 185.124 1214.9 184.9C1214.8 184.6 1212.6 178.8 1210.6 174.9H1208.7Z" fill="#D11583"/>
<path d="M1209.9 216.7H1209.7L1202 219C1201.86 219.043 1201.73 219.12 1201.63 219.225C1201.52 219.329 1201.44 219.458 1201.4 219.6C1201.37 219.763 1201.39 219.931 1201.44 220.088C1201.49 220.245 1201.58 220.387 1201.7 220.5L1208.5 226.4C1208.54 226.496 1208.61 226.577 1208.7 226.63C1208.79 226.684 1208.9 226.709 1209 226.7C1209.13 226.704 1209.26 226.679 1209.38 226.628C1209.51 226.576 1209.61 226.498 1209.7 226.4C1209.78 226.309 1209.85 226.203 1209.88 226.088C1209.92 225.972 1209.94 225.85 1209.93 225.729C1209.92 225.607 1209.89 225.489 1209.83 225.38C1209.77 225.272 1209.7 225.177 1209.6 225.1L1204 220.2L1210 218.4L1209.9 216.7Z" fill="#D11583"/>
<path d="M1149 184.6L1134.9 191.3" stroke="black" stroke-width="2" stroke-linecap="round" stroke-linejoin="round"/>
<path d="M1203.9 99.7999C1188.49 103.929 1172.87 107.234 1157.1 109.7" stroke="#FFC619" stroke-width="2" stroke-miterlimit="10" stroke-linecap="round"/>
<path d="M1216.4 195.6L1227.2 205.5C1227.54 205.798 1227.97 205.978 1228.42 206.014C1228.87 206.05 1229.32 205.94 1229.7 205.7C1229.94 205.528 1230.14 205.303 1230.29 205.044C1230.43 204.784 1230.52 204.495 1230.54 204.198C1230.56 203.901 1230.51 203.603 1230.4 203.327C1230.29 203.05 1230.12 202.802 1229.9 202.6L1219.4 192.5C1219.08 192.209 1218.68 192.023 1218.25 191.97C1217.82 191.916 1217.38 191.996 1217 192.2L1216.7 192.4C1216.43 192.562 1216.21 192.784 1216.04 193.049C1215.88 193.313 1215.77 193.613 1215.74 193.924C1215.72 194.235 1215.76 194.549 1215.87 194.84C1215.99 195.131 1216.17 195.391 1216.4 195.6Z" fill="#BAE8FF"/>
<path d="M1243.5 187.5C1245.32 185.079 1246.46 182.212 1246.8 179.2" stroke="black" stroke-width="2" stroke-linecap="round" stroke-linejoin="round"/>
<path d="M1332.19 49.2318C1333.1 44.9085 1330.25 40.6467 1325.82 39.7128C1321.38 38.779 1317.05 41.5267 1316.14 45.85C1315.23 50.1734 1318.09 54.4351 1322.52 55.369C1326.95 56.3028 1331.28 53.5551 1332.19 49.2318Z" fill="#2A39D4"/>
<path d="M1385.7 123.5C1393 123.9 1401.8 126.9 1412.8 139.1C1419 132.9 1422 134.6 1430.3 141.7C1438.6 148.8 1456.4 162.3 1460.8 166.8C1465.2 171.3 1468.5 181 1456.5 188.3C1444.5 195.6 1423.2 182.2 1412 174.4C1400.8 166.6 1385.7 157.5 1385.7 157.5V123.5Z" fill="#2331B5"/>
<path d="M1427 138.9C1429.91 143.69 1432.35 148.746 1434.3 154C1436.6 161.2 1433.7 165.4 1427.8 170.3C1421.9 175.2 1419.5 174.1 1416.4 171.6C1416.21 171.493 1415.99 171.457 1415.78 171.499C1415.57 171.54 1415.38 171.656 1415.25 171.826C1415.11 171.996 1415.04 172.207 1415.05 172.423C1415.06 172.638 1415.15 172.843 1415.3 173C1416.88 174.391 1418.89 175.202 1421 175.3C1423.5 175.3 1426 174.1 1429 171.6C1434.1 167.3 1438.9 162.4 1435.9 153.4C1434.79 150.162 1433.42 147.018 1431.8 144C1431.17 142.789 1430.32 141.704 1429.3 140.8L1427 138.9Z" fill="#3442D9"/>
<path d="M1411.9 168.8C1417.3 174 1430.2 183.2 1430.2 183.2" stroke="black" stroke-width="2" stroke-miterlimit="10" stroke-linecap="round"/>
<path d="M1358.88 122.224C1384.75 114.855 1400.33 89.9792 1393.69 66.6615C1387.05 43.3437 1360.69 30.4144 1334.83 37.7828C1308.96 45.1513 1293.38 70.0274 1300.02 93.3451C1306.66 116.663 1333.01 129.592 1358.88 122.224Z" fill="#FF78B9"/>
<path d="M1312.8 75.2001C1312.8 84.8001 1317.4 93.3001 1323.1 94.2001C1328.8 95.1001 1330.2 90.1001 1330.4 80.8001C1330.4 78.4001 1330.5 76.0002 1330.7 73.5002C1331.3 64.9002 1328.2 60.2001 1323.1 59.4001C1318 58.6001 1312.8 65.6001 1312.8 75.2001Z" fill="white"/>
<path d="M1355.2 75.8001C1354.21 74.5131 1353.62 72.9612 1353.52 71.3412C1353.41 69.7212 1353.79 68.1059 1354.6 66.7001C1362.6 53.1001 1369.9 52.6001 1375.1 52.9001C1380.3 53.2001 1384.3 58.1001 1380 70.5001C1386.1 77.1001 1383.6 83.2001 1374.9 84.0001C1366.2 84.8001 1361.5 84.1001 1355.2 75.8001Z" fill="#D11583"/>
<path d="M1412.4 209.1C1413.6 176.3 1403.1 172.1 1402.1 162.3C1401.1 152.5 1400.1 139.3 1389.3 125.1C1389.3 125.1 1390.6 111.8 1391.3 102.9C1391.32 102.55 1391.26 102.2 1391.12 101.875C1390.99 101.55 1390.79 101.258 1390.53 101.02C1390.27 100.782 1389.97 100.603 1389.63 100.495C1389.3 100.388 1388.95 100.356 1388.6 100.4C1381.59 101.516 1374.49 101.951 1367.4 101.7C1355.2 101.3 1338.7 100.1 1321.1 117.2L1326.8 125.2L1326.4 125.9C1326.12 126.382 1325.94 126.921 1325.89 127.478C1325.84 128.034 1325.91 128.595 1326.11 129.12C1326.3 129.646 1326.6 130.122 1327 130.516C1327.39 130.91 1327.87 131.212 1328.4 131.4L1329.5 131.8C1329.5 131.8 1313.4 141.5 1318.2 163.4C1323 185.3 1317.9 206.5 1326 213C1327.64 214.303 1329.58 215.161 1331.65 215.494C1333.72 215.827 1335.83 215.622 1337.8 214.9L1374.9 234.7C1388.4 249.6 1407.6 266.3 1407.6 266.3L1392.8 301.6L1408.4 340.9C1421.7 308.3 1439.2 276.3 1442.3 261.5C1445.4 246.7 1435.4 238 1412.4 209.1Z" fill="#2331B5"/>
<path d="M1397.8 320.8C1405.2 297.9 1413.5 277.2 1416 271.2C1416.21 270.673 1416.26 270.095 1416.13 269.541C1416.01 268.988 1415.72 268.485 1415.3 268.1C1393.7 247.4 1388.6 240.3 1388.6 240.3" stroke="#3442D9" stroke-width="2" stroke-miterlimit="10"/>
<path d="M1340.7 195L1327.3 185.9C1327.3 185.9 1335.4 174.8 1339.9 168.1L1341 166.4C1341.04 166.299 1341.11 166.208 1341.19 166.132C1341.27 166.057 1341.36 165.998 1341.46 165.961C1341.57 165.923 1341.68 165.907 1341.79 165.914C1341.9 165.921 1342 165.95 1342.1 166C1342.28 166.086 1342.43 166.232 1342.52 166.413C1342.61 166.595 1342.64 166.801 1342.6 167C1339.7 184.7 1340.7 195 1340.7 195Z" fill="black"/>
<path d="M1391.1 104.6C1384 107 1374.6 106.9 1363.4 106.6C1352.2 106.3 1340.9 106 1322.4 119L1325.4 123.3C1342.5 111.2 1351.7 111.5 1363.3 111.8C1374.9 112.1 1383.1 112.2 1390.7 110.2C1390.8 108.3 1391 106.4 1391.1 104.6Z" fill="#3442D9"/>
<path d="M1385.7 207.5C1385.92 207.501 1386.14 207.42 1386.3 207.273C1386.47 207.125 1386.58 206.921 1386.6 206.7C1386.8 190.6 1380.7 174.2 1378.1 167.9C1375.37 161.411 1373.72 154.521 1373.2 147.5C1372.4 138.4 1370.5 131.3 1369.3 128.5L1372.7 101.7H1370.9L1367.5 128.8V129C1368.6 131.4 1370.6 138.5 1371.4 147.7C1371.93 154.88 1373.58 161.933 1376.3 168.6C1379 174.8 1385 190.9 1384.8 206.6C1384.8 206.839 1384.89 207.068 1385.06 207.236C1385.23 207.405 1385.46 207.5 1385.7 207.5Z" fill="black"/>
<path d="M1443.5 363.5C1443.14 362.972 1442.67 362.534 1442.11 362.222C1441.56 361.91 1440.94 361.731 1440.3 361.7C1440.9 358.1 1440.2 355.1 1435.5 354C1430.07 352.83 1424.44 353.001 1419.1 354.5C1409.9 330.9 1391.7 268.7 1379 223.3L1337.8 214.9C1337.4 226.2 1344.8 251.1 1350.2 272.5C1355.6 293.9 1367.5 338.7 1370.8 354.9C1372.8 364.7 1375.7 376.4 1375.7 376.4H1413.9C1425.1 376.4 1439.5 372 1442.3 369.8C1445.1 367.6 1444.5 365.3 1443.5 363.5Z" fill="#2331B5"/>
<path d="M1382.2 353.3C1370.4 316.1 1353.2 266.1 1342.7 215.3" stroke="#3442D9" stroke-width="2" stroke-miterlimit="10"/>
<path d="M1362.6 209.1C1362.8 206.2 1358.8 195.3 1354 187.4C1349.2 179.5 1346.8 173.9 1342.3 176.5C1337.8 179.1 1327.3 185.9 1327.3 185.9C1327.3 185.9 1335.4 174.8 1339.9 168.1C1349.6 153.5 1346.2 133.4 1329.5 131.8C1315.8 139.4 1313.7 145.9 1300.7 168.8C1287.7 191.7 1280 216.1 1294 226.2C1308 236.3 1321.5 229.3 1346.7 218.2C1357.6 213.5 1362.5 212.1 1362.6 209.1Z" fill="#2331B5"/>
<path d="M1346.9 216.7C1344.1 215.4 1341.6 211.2 1338.6 202.6C1333.6 188.1 1332.3 183.7 1335.4 180.7L1333.5 181.9C1333.05 182.171 1332.68 182.552 1332.41 183.006C1332.15 183.461 1332.01 183.975 1332 184.5C1331.9 188.3 1333.8 193.9 1337 203.2C1339 209 1340.8 212.9 1342.7 215.3C1343.42 216.316 1344.48 217.05 1345.68 217.379C1346.88 217.707 1348.16 217.608 1349.3 217.1C1348.48 217.18 1347.65 217.042 1346.9 216.7Z" fill="#3442D9"/>
<path d="M1354 187.4C1349.3 179.5 1346.8 173.9 1342.3 176.5C1337.8 179.1 1314.8 193.6 1314.8 193.6" stroke="black" stroke-width="2" stroke-miterlimit="10" stroke-linecap="round"/>
<path d="M1405.7 129.9C1402.61 109.118 1401.44 88.0964 1402.2 67.1001C1402.22 66.4297 1402.09 65.7633 1401.81 65.1543C1401.52 64.5452 1401.1 64.0104 1400.58 63.5926C1400.05 63.1747 1399.44 62.8854 1398.78 62.7478C1398.13 62.6102 1397.45 62.6281 1396.8 62.8001L1371.9 69.8001" stroke="#66BCFF" stroke-width="4" stroke-miterlimit="10" stroke-linecap="round"/>
<path d="M1389.7 131.6C1392.1 136.2 1396.4 144.4 1397.3 147.1C1397.6 151.3 1397.4 158.5 1397.4 160.7C1397.41 160.904 1397.48 161.099 1397.61 161.26C1397.73 161.42 1397.91 161.539 1398.1 161.6C1404.9 162.6 1407.8 162.7 1410.6 162.4C1413.4 162.1 1417.3 160.8 1420 160C1420.29 159.888 1420.52 159.669 1420.65 159.39C1420.78 159.111 1420.8 158.792 1420.7 158.5C1418.2 150.3 1416.5 144.4 1416.5 144.4C1416 134.2 1415.9 126.1 1415.9 123.4C1415.9 123.135 1415.79 122.881 1415.61 122.693C1415.42 122.505 1415.16 122.4 1414.9 122.4C1405.6 121.8 1402.4 121.8 1399 122C1395.6 122.2 1394.5 124.2 1389.8 129.8C1389.59 130.049 1389.47 130.359 1389.45 130.683C1389.43 131.008 1389.52 131.33 1389.7 131.6Z" fill="white"/>
<path d="M1419.7 159.2C1419.7 159.2 1420.8 159.6 1420 160C1420.29 159.888 1420.52 159.669 1420.65 159.39C1420.78 159.111 1420.8 158.792 1420.7 158.5C1418.2 150.3 1416.5 144.4 1416.5 144.4C1416 134.2 1415.9 126.1 1415.9 123.4C1415.9 123.135 1415.79 122.881 1415.61 122.693C1415.42 122.505 1415.16 122.4 1414.9 122.4C1405.6 121.8 1402.4 121.8 1399 122C1398.28 122.049 1397.57 122.218 1396.9 122.5L1405.7 141.1L1405.1 158.2L1419.7 159.2Z" fill="#FFE75C"/>
<path d="M1406.2 158.7C1407.9 164.8 1409.4 169.1 1413.2 169.9C1417 170.7 1421.5 166.8 1427.3 161C1433.1 155.2 1431.1 150.3 1428.6 145.7C1426.1 141.1 1425.7 135.3 1422.6 132.9C1418.76 130.078 1414.64 127.665 1410.3 125.7C1406.8 124.2 1404.7 124.2 1399.4 130.2C1394.1 136.2 1391 139.7 1391.9 142.1C1392.8 144.5 1394.3 147.1 1394.3 147.1C1391.9 149.5 1391.9 151.5 1392.9 154C1393.9 156.5 1394.3 158.8 1399.4 158.8L1406.2 158.7Z" fill="#FF78B9"/>
<path d="M1394.5 146L1408.5 132.8" stroke="black" stroke-width="2" stroke-miterlimit="10" stroke-linecap="round"/>
<path d="M1407.3 151.2C1404.16 153.184 1400.88 154.954 1397.5 156.5C1397.4 158.4 1397.4 159.9 1397.4 160.7C1397.41 160.904 1397.48 161.099 1397.61 161.26C1397.73 161.42 1397.9 161.539 1398.1 161.6C1404.9 162.6 1407.8 162.7 1410.6 162.4C1413.4 162.1 1417.3 160.8 1420 160C1420.29 159.888 1420.52 159.669 1420.65 159.39C1420.78 159.111 1420.8 158.792 1420.7 158.5L1420.1 156.5C1415.64 155.252 1411.34 153.473 1407.3 151.2Z" fill="white"/>
<path d="M1420.1 156.5C1415.64 155.252 1411.34 153.473 1407.3 151.2L1405.3 152.5L1405.1 158C1405.12 158.069 1405.16 158.132 1405.22 158.183C1405.27 158.235 1405.33 158.275 1405.4 158.3L1419.7 159.2C1419.7 159.2 1420.8 159.6 1420 160C1420.3 159.892 1420.55 159.679 1420.7 159.4C1420.7 159.3 1420.8 159.1 1420.8 159C1420.82 158.827 1420.78 158.654 1420.7 158.5L1420.1 156.6V156.5Z" fill="#FFE75C"/>
<path d="M1345.8 179C1348.95 175.337 1351.26 171.04 1352.6 166.4C1353.6 163.4 1354.7 159.1 1355.1 157.5C1355.5 155.9 1357.4 155 1359.7 155.5C1362 156 1363 156.4 1362.6 160.5C1362.2 164.6 1361.3 174.3 1361.3 174.3L1345.8 179Z" fill="#FF78B9"/>
<path d="M1391.8 181.4C1390.3 177.3 1389.6 175.2 1388.3 173.5C1387 171.8 1385.8 171.5 1380 171.2C1377.7 171.1 1373.3 171.2 1370.4 171.3C1376.1 169.8 1382.2 168.5 1383.5 168.1C1384.8 167.7 1387.4 167.3 1386.5 164.8C1385.6 162.3 1384.8 161.7 1383.4 161.7C1379.81 161.631 1376.23 161.933 1372.7 162.6C1367.55 163.608 1362.5 165.046 1357.6 166.9C1354.7 168.1 1351 173.5 1345.8 179C1348.1 187.1 1353.6 199.5 1359.2 205.4C1366.6 202.5 1371 196.1 1372.8 193.7C1382.1 192.1 1385.3 193.1 1390.5 193.8C1393.7 194.2 1394 191.9 1394.2 190.8C1394.4 189.7 1393.1 185.2 1391.8 181.4Z" fill="#FF78B9"/>
<path d="M1315.8 75.3001C1315.5 79.5001 1316.9 83.0001 1318.9 83.2001C1320.9 83.4001 1321.9 81.8001 1322 77.9001C1322.05 76.2515 1322.25 74.611 1322.6 73.0001C1323.3 69.5001 1321.8 68.2001 1320.1 68.1001C1318.4 68.0001 1316.1 71.2001 1315.8 75.3001Z" fill="black"/>
<path d="M1350.1 25.9001C1352.17 25.4692 1354.33 25.8105 1356.18 26.86C1358.02 27.9095 1359.41 29.595 1360.1 31.6001C1361.6 36.3001 1362.9 43.4001 1354.9 44.7001C1351.5 45.2001 1348 43.7001 1342.6 39.5001C1338.7 36.4001 1334.5 35.3001 1325.4 40.0001C1320.5 36.6001 1322.9 27.9001 1336.2 32.3001C1330.4 24.8001 1332.1 19.6001 1336.3 18.1001C1340.5 16.6001 1346.8 17.4001 1350.1 25.9001Z" fill="#2A39D4"/>
<path d="M1350.1 40.3001C1347.2 36.7001 1344.8 31.9001 1342.8 27.8001C1340.8 23.7001 1338.8 19.4001 1336.6 18.1001H1336.3C1335.51 18.3747 1334.8 18.8185 1334.2 19.4001L1334.9 19.2001C1336.8 19.4001 1338.9 23.8001 1341.2 28.5001C1343.5 33.2001 1345.7 37.6001 1348.7 41.4001C1349.71 42.5928 1350.85 43.6664 1352.1 44.6001C1353.02 44.7827 1353.97 44.8165 1354.9 44.7001H1355C1353.16 43.484 1351.51 42.0012 1350.1 40.3001Z" fill="black"/>
<path d="M1360.2 41.7002C1359.77 42.3286 1359.23 42.8713 1358.6 43.3002C1358.13 36.6613 1355.16 30.4465 1350.3 25.9002C1351.05 25.7161 1351.83 25.6821 1352.6 25.8002C1356.78 30.1399 1359.45 35.7182 1360.2 41.7002Z" fill="black"/>
<path d="M1370.4 352.7C1370.5 353.5 1370.7 354.2 1370.8 354.9C1372.8 364.7 1375.7 376.4 1375.7 376.4H1413.9C1425.1 376.4 1439.5 372 1442.3 369.8C1445.1 367.6 1444.5 365.3 1443.5 363.5C1443.14 362.972 1442.67 362.534 1442.11 362.222C1441.56 361.909 1440.94 361.731 1440.3 361.7C1440.9 358.1 1440.2 355.1 1435.5 354C1430.07 352.829 1424.44 353.001 1419.1 354.5C1417.7 350.8 1416 346.2 1414.2 340.9C1397.4 340.6 1380.3 339.2 1370.4 352.7Z" fill="#45AAF7"/>
<path d="M1370.4 352.7C1370.5 353.5 1370.7 354.2 1370.8 354.9C1372.8 364.7 1375.7 376.4 1375.7 376.4H1413.9C1425.1 376.4 1439.5 372 1442.3 369.8C1445.1 367.6 1444.5 365.3 1443.5 363.5C1443.14 362.972 1442.67 362.534 1442.11 362.222C1441.56 361.909 1440.94 361.731 1440.3 361.7C1440.9 358.1 1440.2 355.1 1435.5 354C1430.07 352.829 1424.44 353.001 1419.1 354.5C1417.7 350.8 1416 346.2 1414.2 340.9C1397.4 340.6 1380.3 339.2 1370.4 352.7Z" fill="#45AAF7"/>
<path d="M1419.1 354.5L1417.8 354.8H1417.6L1406.7 357C1406.52 356.768 1406.42 356.49 1406.4 356.2C1405.58 353.372 1405.14 350.445 1405.1 347.5C1405 341.4 1401.8 340.8 1396.3 340.9L1396.6 340.2C1397.34 338.262 1398.66 336.598 1400.37 335.435C1402.09 334.272 1404.13 333.667 1406.2 333.7H1415.3C1415.83 333.707 1416.36 333.829 1416.84 334.058C1417.32 334.287 1417.74 334.616 1418.08 335.025C1418.43 335.433 1418.68 335.91 1418.82 336.423C1418.96 336.937 1418.99 337.475 1418.9 338C1417.8 342.7 1417.5 348.5 1418.6 352.8C1418.71 353.383 1418.87 353.953 1419.1 354.5Z" fill="#8CD9FF"/>
<path d="M1380.5 360.6C1379.14 360.144 1377.7 359.971 1376.28 360.092C1374.85 360.212 1373.46 360.623 1372.2 361.3C1372.28 361.91 1372.42 362.512 1372.6 363.1C1373.68 362.426 1374.89 361.996 1376.15 361.841C1377.41 361.685 1378.69 361.808 1379.9 362.2C1385.5 364.1 1389.6 371.4 1391.7 376.4H1393.6C1391.4 371.2 1387 362.8 1380.5 360.6Z" fill="#5865F2"/>
<path d="M1443.2 368.9L1442.3 369.8C1439.5 372 1425.1 376.4 1413.9 376.4H1391.1V376C1417.3 375.6 1435.1 364.7 1441.2 364.7C1443.2 364.7 1444.4 367.7 1443.2 368.9Z" fill="black"/>
<path d="M1418.1 155.1C1419.52 157.012 1421.58 158.358 1423.9 158.9" stroke="black" stroke-width="2" stroke-miterlimit="10" stroke-linecap="round"/>
<path d="M1374.2 147.4C1373.2 147.405 1372.24 147.039 1371.5 146.373C1370.76 145.708 1370.3 144.79 1370.2 143.8L1369.4 134.7H1371.2L1376.5 143.4C1376.72 143.806 1376.84 144.263 1376.83 144.727C1376.83 145.19 1376.7 145.645 1376.47 146.047C1376.24 146.449 1375.91 146.784 1375.51 147.021C1375.12 147.258 1374.66 147.389 1374.2 147.4Z" fill="#FFE75C"/>
<path d="M1329.5 131.8H1339.3" stroke="black" stroke-width="2" stroke-miterlimit="10" stroke-linecap="round"/>
<path d="M1385.2 245.4C1384 241.1 1382.2 235 1382.2 235C1390.24 229.757 1397.89 223.942 1405.1 217.6C1405.1 217.6 1396.8 236 1393.1 253.1L1385.2 245.4Z" fill="black"/>
<path d="M1407.6 266.3L1417.3 265.9" stroke="black" stroke-width="2" stroke-miterlimit="10" stroke-linecap="round"/>
<path d="M1419.1 354.5L1417.8 354.8H1417.6C1413.25 355.826 1408.98 357.129 1404.8 358.7H1404.5C1404.32 358.691 1404.15 358.628 1404.01 358.521C1403.87 358.415 1403.76 358.268 1403.7 358.1C1403.65 357.996 1403.63 357.883 1403.63 357.768C1403.63 357.654 1403.65 357.54 1403.7 357.436C1403.75 357.332 1403.82 357.239 1403.9 357.164C1403.99 357.088 1404.09 357.033 1404.2 357L1406.4 356.1C1410.39 354.712 1414.46 353.577 1418.6 352.7C1418.7 353.317 1418.87 353.921 1419.1 354.5Z" fill="black"/>
<path d="M1392.1 182.2L1391.8 181.4L1391.4 180.4C1382.7 179.5 1373.6 178.9 1364.7 179.8C1364.58 179.813 1364.47 179.85 1364.36 179.907C1364.26 179.964 1364.17 180.042 1364.09 180.135C1364.02 180.227 1363.96 180.334 1363.93 180.448C1363.9 180.562 1363.89 180.682 1363.9 180.8C1363.91 180.918 1363.95 181.033 1364.01 181.137C1364.06 181.241 1364.14 181.333 1364.23 181.407C1364.33 181.482 1364.43 181.537 1364.55 181.57C1364.66 181.603 1364.78 181.613 1364.9 181.6C1373.9 180.6 1383.2 181.3 1392.1 182.2Z" fill="black"/>
<path d="M1324.2 70.8002L1318.4 73.6002L1326.5 77.3002L1324.2 70.8002Z" fill="white"/>
<path d="M1443.2 368.9C1443.8 368.1 1443.1 367.6 1441.2 367.6C1435.1 367.6 1417.3 376 1391.1 376.4H1375.7L1374.6 372C1386.6 372 1399.7 371.8 1411.9 367.9C1424.1 364 1432.2 360.7 1440.3 361.7C1440.94 361.731 1441.56 361.909 1442.11 362.222C1442.67 362.534 1443.14 362.972 1443.5 363.5C1444.04 364.311 1444.31 365.276 1444.25 366.25C1444.2 367.224 1443.83 368.154 1443.2 368.9Z" fill="white"/>
<path d="M1411.9 336.9H1413.1C1415.9 336.9 1417.8 337 1418.4 337.7C1419 338.4 1418.7 338.7 1418.5 339.7C1418.58 339.123 1418.72 338.555 1418.9 338C1418.99 337.378 1418.82 336.747 1418.45 336.242C1418.08 335.737 1417.52 335.399 1416.9 335.3H1411.9C1407.3 335.3 1402.1 335.3 1399.4 341.2C1400.01 341.184 1400.62 341.286 1401.2 341.5C1403.5 336.8 1407.6 336.9 1411.9 336.9Z" fill="#3442D9"/>
<path d="M1374.2 65.3002C1372.9 67.4002 1370.6 69.8002 1365.5 70.8002C1372.5 70.0002 1375.5 73.9002 1375.5 73.9002" stroke="black" stroke-width="2" stroke-linecap="round" stroke-linejoin="round"/>
<path d="M1243.9 376.4H1177.4V362.4C1177.39 358.782 1178.79 355.303 1181.3 352.7L1187.9 346.3C1188.75 345.503 1189.42 344.542 1189.88 343.477C1190.35 342.411 1190.59 341.262 1190.6 340.1V324.1C1190.61 320.896 1191.7 317.789 1193.7 315.284C1195.69 312.778 1198.48 311.022 1201.6 310.3C1212.3 307.6 1223.4 307.1 1232.5 308.9C1235.72 309.567 1238.61 311.323 1240.69 313.873C1242.77 316.424 1243.9 319.611 1243.9 322.9V376.4Z" fill="#45AAF7"/>
<path d="M1194.5 349.6H1194.9C1195.06 349.609 1195.21 349.577 1195.35 349.506C1195.49 349.436 1195.61 349.331 1195.7 349.2C1198.7 343.4 1198.7 334.4 1198.7 324.8C1198.7 315.2 1199.6 311.6 1206 309.2L1202.6 309.9C1201.72 310.098 1200.9 310.488 1200.19 311.041C1199.48 311.594 1198.91 312.297 1198.5 313.1C1197.1 315.9 1196.9 319.6 1196.9 324.8C1196.9 334.2 1196.9 343 1194.1 348.4C1194.03 348.501 1193.99 348.617 1193.97 348.738C1193.96 348.859 1193.97 348.982 1194.01 349.098C1194.04 349.214 1194.11 349.319 1194.2 349.406C1194.28 349.493 1194.38 349.56 1194.5 349.6Z" fill="#BAE8FF"/>
<path d="M1243.9 322.9C1243.9 319.597 1242.75 316.399 1240.65 313.847C1238.55 311.295 1235.64 309.547 1232.4 308.9C1227.05 307.98 1221.62 307.678 1216.2 308C1203.4 308.9 1205.3 317 1205.3 328.8V338.9C1205.31 342.275 1204.41 345.59 1202.7 348.5C1200.8 351.6 1200.3 355.4 1200.3 362.8V376.4H1243.9V322.9Z" fill="#3F99F2"/>
<path d="M1227.9 360.3C1227.3 342.9 1219.4 327.7 1211.4 313.2C1211.2 312.912 1211.08 312.573 1211.05 312.221C1211.03 311.869 1211.11 311.517 1211.27 311.205C1211.44 310.894 1211.69 310.635 1211.99 310.457C1212.3 310.28 1212.65 310.191 1213 310.2H1215C1215.42 310.223 1215.83 310.344 1216.19 310.552C1216.56 310.76 1216.87 311.051 1217.1 311.4C1225.3 326.5 1233.9 342.2 1234.5 360.3C1234.8 369.4 1227.9 376.4 1218.7 376.4H1212.1C1221.3 376.4 1228.2 369.4 1227.9 360.3Z" fill="#3543DE"/>
<path d="M1246.7 360.3C1246.1 342.9 1238.1 327.7 1230.2 313.2C1230 312.912 1229.88 312.573 1229.85 312.221C1229.83 311.869 1229.91 311.517 1230.07 311.205C1230.24 310.894 1230.49 310.635 1230.79 310.457C1231.1 310.28 1231.45 310.191 1231.8 310.2H1233.8C1234.21 310.214 1234.61 310.331 1234.96 310.541C1235.31 310.751 1235.6 311.047 1235.8 311.4C1244.1 326.5 1252.6 342.2 1253.3 360.3C1253.4 362.415 1253.06 364.527 1252.3 366.504C1251.55 368.481 1250.39 370.281 1248.91 371.792C1247.42 373.303 1245.65 374.492 1243.68 375.285C1241.72 376.078 1239.62 376.457 1237.5 376.4H1230.9C1233.02 376.457 1235.12 376.078 1237.08 375.285C1239.05 374.492 1240.82 373.303 1242.31 371.792C1243.79 370.281 1244.95 368.481 1245.7 366.504C1246.46 364.527 1246.8 362.415 1246.7 360.3Z" fill="#3543DE"/>
<path d="M1230.4 333.3L1250.7 336.8C1252.3 341 1253.1 343.8 1253.3 346.5C1253.5 349.2 1250.9 350.7 1246.9 352.3C1244.03 353.499 1241.39 355.192 1239.1 357.3C1233.3 362.4 1228.4 365.5 1219.9 365.5C1218.2 365.5 1217 365.6 1216 364.5C1214.94 363.304 1214.31 361.784 1214.22 360.187C1214.13 358.59 1214.58 357.009 1215.5 355.7C1216.53 354.305 1217.78 353.089 1219.2 352.1C1222.22 350.14 1224.77 347.537 1226.68 344.478C1228.58 341.419 1229.78 337.978 1230.2 334.4C1230.3 333.9 1230.3 333.6 1230.4 333.3Z" fill="#DE3A93"/>
<path d="M1246.9 352.3C1248.59 351.669 1250.17 350.793 1251.6 349.7C1253.5 347.9 1252.7 346.2 1248.6 346.3C1244.5 346.4 1240.2 349.6 1231.6 354.9C1223 360.2 1210.2 365.5 1219.9 365.5C1229.6 365.5 1233.3 362.4 1239.1 357.3C1241.39 355.192 1244.03 353.499 1246.9 352.3Z" fill="black"/>
<path d="M1228.2 327.2C1226.7 327.5 1226.9 329.2 1227.7 330.9C1226.1 333.9 1227.1 335.1 1229.9 336.3C1235.56 338.224 1241.53 339.038 1247.5 338.7C1253.6 338.1 1253.2 336.1 1252.6 334.1C1254.7 332.3 1254.4 330.2 1252.3 329.3C1250.2 328.4 1238.9 324.9 1228.2 327.2Z" fill="#66BCFF"/>
<path d="M1273.3 222.8H1247.1V237.09H1273.3V222.8Z" fill="white"/>
<path d="M1326.6 223.1C1327.1 225.132 1327.13 227.252 1326.69 229.298C1326.25 231.345 1325.35 233.264 1324.06 234.912C1322.77 236.559 1321.12 237.892 1319.24 238.808C1317.36 239.724 1315.29 240.2 1313.2 240.2H1284.6L1271.2 247.7V247.3C1265.1 247.3 1261.6 245.3 1264.3 222.9C1263.1 216.6 1257.5 191.8 1254.4 173.3C1251.6 156.4 1257.9 150.2 1275.3 140.4C1282.7 118.4 1301.9 119.7 1305.6 132.9C1309.3 146.1 1321.5 202.2 1326.6 223.1Z" fill="#66BCFF"/>
<path d="M1272.9 254.8L1268.3 255.6C1268.08 255.644 1267.86 255.737 1267.68 255.871C1267.49 256.004 1267.33 256.177 1267.22 256.376C1267.11 256.575 1267.04 256.796 1267.02 257.025C1267 257.253 1267.02 257.484 1267.1 257.7L1268.1 260.2C1254.2 261 1242.1 262.2 1237.3 266.4C1232.5 270.6 1232.5 277 1230.3 296.1C1228.1 315.2 1224.5 326.6 1230.3 329.2C1236.19 331.728 1242.63 332.693 1249 332C1255.4 331.4 1256 328.1 1257.3 318.2C1258.6 308.3 1261.7 286.3 1261.7 286.3H1312.2C1324.7 286.3 1332.1 278.1 1333.8 271.1C1335 266.1 1333.4 254.3 1330.5 240.3H1284.6L1271.2 247.8L1272.2 252.1L1272.9 254.8Z" fill="#3442D9"/>
<path d="M1315 240.5C1320 265.5 1321 284.3 1302 292.9" stroke="#2330BF" stroke-width="2" stroke-miterlimit="10"/>
<path d="M1275.7 227.9C1275.7 227.9 1277.8 240.2 1280.7 254.8C1284 271.6 1283.1 271 1260.2 272.5C1240.1 273.8 1241.9 272.8 1237.7 295.7C1236.1 304.7 1233.3 321 1234.1 330C1234.1 330 1233.2 335.3 1233.4 336.4" stroke="#2467D4" stroke-width="2" stroke-linecap="round" stroke-linejoin="round"/>
<path d="M1261.7 286.3C1250.6 284.6 1245.2 274.6 1245.2 274.6" stroke="black" stroke-width="2" stroke-linecap="round" stroke-linejoin="round"/>
<path d="M1261.7 286.3C1259.43 284.962 1257.44 283.185 1255.87 281.073C1254.29 278.962 1253.14 276.557 1252.5 274" stroke="black" stroke-width="2" stroke-linecap="round" stroke-linejoin="round"/>
<path d="M1326.6 223.1C1324 212.3 1319.4 192.3 1315.1 173.6L1292.7 171.9L1275.4 184.1L1265.4 197.5L1260.3 204.4C1262.1 213 1263.6 220 1264.2 223C1261.5 245.4 1265 247.4 1271.1 247.4L1288.8 239.9L1329.8 237C1328.8 232.5 1327.7 227.8 1326.6 223.1Z" fill="#EB459F"/>
<path d="M1280.77 211.842C1282.03 204.382 1281.38 198.05 1279.31 197.7C1277.24 197.35 1274.54 203.114 1273.28 210.575C1272.01 218.035 1272.67 224.366 1274.74 224.716C1276.81 225.066 1279.51 219.302 1280.77 211.842Z" fill="black"/>
<path d="M1267.7 193.3C1268.7 191.5 1269.8 189.7 1270.9 188.1C1282.2 171.8 1292.8 167.4 1303 167.4H1315.7C1315.89 167.405 1316.08 167.455 1316.24 167.545C1316.41 167.635 1316.55 167.764 1316.66 167.92C1316.76 168.076 1316.83 168.255 1316.86 168.443C1316.88 168.631 1316.86 168.822 1316.8 169L1315.1 173.6C1295.6 173.6 1288.7 173 1272.5 190L1265.4 197.5L1267.7 193.3Z" fill="#D11583"/>
<path d="M1329.8 237H1296.7C1289.3 237 1280.2 236.6 1271.1 247.4L1272.2 252.1C1277.5 247 1282.4 244.8 1293 244.8H1331.4L1329.8 237Z" fill="black"/>
<path d="M1272.5 190.6C1265.8 191.8 1260.5 195.3 1257.5 201.5C1256.65 203.22 1255.42 204.724 1253.9 205.9L1235.9 219C1233.88 220.436 1232.47 222.579 1231.95 225.005C1231.43 227.431 1231.84 229.963 1233.1 232.1C1233.98 233.6 1235.24 234.842 1236.74 235.702C1238.25 236.562 1239.96 237.01 1241.7 237H1249.2C1264.8 228.3 1272 222.4 1275.7 219C1279.4 215.6 1283.5 209.5 1282.8 202.5C1282.1 195.5 1280.1 189.2 1272.5 190.6Z" fill="white"/>
<path d="M1278.1 138.9C1275.7 134.9 1272.5 129.6 1271.3 127.1C1270.1 124.6 1267.2 125.2 1271.3 136.4C1261.3 132.6 1259.2 134 1258.7 135.4C1258.2 136.8 1260.4 137.5 1264.6 139.9C1268.8 142.3 1273.3 145.2 1273.3 145.2L1278.1 138.9Z" fill="#66BCFF"/>
<path d="M1288.5 139.2C1290.2 137.1 1290.8 134.8 1289.8 134C1288.8 133.2 1287.7 133.6 1286.2 135.6C1285.55 136.413 1284.85 137.182 1284.1 137.9C1282.4 139.5 1282.8 140.7 1283.6 141.4C1284.4 142.1 1286.8 141.3 1288.5 139.2Z" fill="black"/>
<path d="M1305.5 133C1305.5 133 1293.6 127.6 1288.5 124.3C1283.4 121 1280.8 116.1 1283.1 114.8C1285.4 113.5 1289.8 116.6 1292.9 120.6C1292.8 113.5 1294 112 1295.9 111.9C1297.8 111.8 1298 114.6 1298.1 118.6C1298.2 122.6 1298.9 124.2 1301.9 126.9C1303.7 128.517 1304.95 130.646 1305.5 133Z" fill="#3442D9"/>
<path d="M1261.8 166.2C1259 166.2 1256.6 163.8 1258.8 159.6C1261 155.4 1268.2 151.2 1271.7 149.6C1275.2 148 1276.8 149.6 1276.9 150.8C1277 152 1276.5 153.8 1274 157C1271.5 160.2 1266.9 166.2 1261.8 166.2Z" fill="white"/>
<path d="M1264 165.9L1262.3 166.2L1259.9 158L1261.3 156.5L1264 165.9Z" fill="#8CD9FF"/>
<path d="M1270.2 161.5L1268.8 162.9L1266 152.8L1267.5 151.8L1270.2 161.5Z" fill="#8CD9FF"/>
<path d="M1275.8 154.5L1274.5 156.3L1272.5 149.3L1274.2 149L1275.8 154.5Z" fill="#8CD9FF"/>
<path d="M1273.6 148.1C1275.45 148.984 1277.35 149.753 1279.3 150.4" stroke="black" stroke-width="2" stroke-linecap="round" stroke-linejoin="round"/>
<path d="M1271.1 259.5L1282.1 272.9" stroke="black" stroke-width="2" stroke-linecap="round" stroke-linejoin="round"/>
<path d="M1279.7 255.5H1275.8L1274.6 250L1273.5 244.9C1274.51 243.907 1275.58 242.972 1276.7 242.1L1278 247.7L1279.7 255.5Z" fill="#3442D9"/>
<path d="M1297 250.2H1293.1L1291.9 244.8L1290.3 237.2H1294.2L1295.8 244.9L1297 250.2Z" fill="#3442D9"/>
<path d="M1328.9 250H1325L1323.8 244.8L1322.2 237H1326.1L1327.7 244.8L1328.9 250Z" fill="#3442D9"/>
<path d="M1318.2 186.8C1316.29 185.282 1313.94 184.407 1311.5 184.3C1306.3 184.3 1303.4 189.4 1302.4 194.3C1302.24 195.086 1301.82 195.792 1301.2 196.302C1300.58 196.812 1299.8 197.093 1299 197.1H1298.3C1297.85 197.017 1297.42 196.844 1297.04 196.59C1296.66 196.337 1296.33 196.009 1296.08 195.626C1295.82 195.243 1295.65 194.813 1295.57 194.362C1295.49 193.91 1295.5 193.447 1295.6 193C1297.5 183.5 1303.7 177.4 1311.5 177.4C1312.79 177.416 1314.04 177.87 1315.04 178.688C1316.04 179.505 1316.73 180.638 1317 181.9L1318.2 186.8Z" fill="white"/>
<path d="M1326.6 223.1C1326.82 223.994 1326.86 224.924 1326.71 225.832C1326.56 226.741 1326.23 227.61 1325.73 228.386C1325.23 229.162 1324.59 229.829 1323.82 230.347C1323.06 230.866 1322.2 231.224 1321.3 231.4L1318.8 231.6C1313.1 231.6 1307.2 228.2 1302.6 222.3C1302.33 221.932 1302.12 221.514 1302.01 221.069C1301.9 220.623 1301.87 220.16 1301.94 219.705C1302 219.25 1302.16 218.812 1302.39 218.417C1302.62 218.021 1302.93 217.676 1303.3 217.4C1303.66 217.111 1304.08 216.899 1304.53 216.777C1304.98 216.656 1305.44 216.627 1305.9 216.692C1306.36 216.758 1306.8 216.916 1307.2 217.159C1307.59 217.401 1307.93 217.721 1308.2 218.1C1311.4 222.2 1315.3 224.7 1318.8 224.7C1322.3 224.7 1324.4 222.7 1325.9 220.1C1326.1 221.2 1326.4 222.2 1326.6 223.1Z" fill="#2331B5"/>
<path d="M1319.9 194.5C1319.19 194.504 1318.51 194.727 1317.93 195.139C1317.36 195.551 1316.93 196.132 1316.7 196.8L1312.5 208.1C1312.13 209.161 1312.14 210.316 1312.52 211.372C1312.91 212.428 1313.64 213.32 1314.6 213.9C1315.03 214.167 1315.52 214.334 1316.03 214.386C1316.54 214.439 1317.05 214.376 1317.53 214.203C1318.01 214.03 1318.45 213.751 1318.81 213.387C1319.16 213.023 1319.44 212.583 1319.6 212.1L1322.3 204.8C1321.6 201.5 1320.8 198.1 1319.9 194.5Z" fill="#5865F2"/>
<path d="M1314.6 213.9C1313.64 213.32 1312.91 212.428 1312.52 211.372C1312.14 210.316 1312.13 209.161 1312.5 208.1L1313.7 205C1313.9 204.459 1314.22 203.968 1314.62 203.56C1315.03 203.153 1315.53 202.839 1316.07 202.639C1316.61 202.44 1317.19 202.36 1317.76 202.405C1318.34 202.45 1318.9 202.619 1319.4 202.9C1320.22 203.381 1320.85 204.132 1321.18 205.027C1321.51 205.921 1321.52 206.901 1321.2 207.8L1319.6 212.1C1319.44 212.583 1319.16 213.023 1318.81 213.387C1318.45 213.751 1318.01 214.03 1317.53 214.203C1317.05 214.376 1316.54 214.439 1316.03 214.386C1315.52 214.334 1315.03 214.168 1314.6 213.9Z" fill="#FFE75C"/>
<path d="M1261.6 229.9C1258.4 232.126 1254.8 233.721 1251 234.6" stroke="#A3D7FF" stroke-width="2" stroke-linecap="round" stroke-linejoin="round"/>
<path d="M1300.3 376.4H1282.8C1272.1 376.4 1262.2 367.8 1260.7 357.2C1259.2 346.6 1266 341 1277.5 338.5L1279.5 338C1281.12 337.661 1282.55 336.717 1283.5 335.361C1284.44 334.004 1284.84 332.337 1284.6 330.7C1284.41 329.107 1283.68 327.626 1282.53 326.5C1281.39 325.374 1279.9 324.669 1278.3 324.5L1275.4 324.2C1263 322.9 1254.8 315.6 1253.3 305C1251.8 294.4 1259.2 286.3 1269.6 286.3H1287.1C1297.8 286.3 1307.7 294.9 1309.2 305.5L1316.6 357.7C1318 368 1310.7 376.4 1300.3 376.4Z" fill="#ADB4FF"/>
<path d="M1320.6 376.4H1303.1C1292.4 376.4 1282.5 367.8 1281 357.2C1280.39 353.299 1281.24 349.311 1283.37 345.992C1285.51 342.673 1288.8 340.256 1292.6 339.2C1294 338.823 1295.22 337.941 1296.01 336.723C1296.81 335.505 1297.12 334.037 1296.9 332.6L1296.4 328.8C1296.21 327.591 1295.66 326.468 1294.82 325.576C1293.98 324.685 1292.9 324.066 1291.7 323.8C1282.6 321.9 1274.9 314.2 1273.6 305C1272.3 295.8 1279.5 286.3 1289.9 286.3H1307.4C1318.1 286.3 1328 294.9 1329.5 305.5L1336.9 357.7C1338.3 368 1331 376.4 1320.6 376.4Z" fill="white"/>
<path d="M1316.2 303.9C1316.27 304.4 1316.24 304.909 1316.09 305.393C1315.95 305.878 1315.7 306.325 1315.37 306.705C1315.04 307.085 1314.63 307.389 1314.17 307.595C1313.7 307.801 1313.21 307.905 1312.7 307.9H1294.3C1293.19 307.869 1292.12 307.454 1291.28 306.724C1290.44 305.994 1289.89 304.996 1289.7 303.9V303.3C1289.61 302.811 1289.63 302.307 1289.76 301.827C1289.89 301.347 1290.13 300.903 1290.46 300.528C1290.78 300.153 1291.19 299.856 1291.65 299.661C1292.11 299.466 1292.6 299.377 1293.1 299.4H1311.6C1312.7 299.426 1313.75 299.828 1314.59 300.537C1315.43 301.247 1316 302.222 1316.2 303.3V303.9Z" fill="#66BCFF"/>
<path d="M1308.2 311.3C1308.29 311.794 1308.27 312.302 1308.14 312.786C1308.01 313.271 1307.77 313.72 1307.44 314.103C1307.12 314.485 1306.71 314.791 1306.26 314.998C1305.8 315.205 1305.3 315.308 1304.8 315.3H1304.3C1303.19 315.269 1302.12 314.854 1301.28 314.124C1300.44 313.395 1299.89 312.396 1299.7 311.3L1297.5 295.9C1297.43 295.405 1297.46 294.9 1297.61 294.42C1297.75 293.941 1298 293.499 1298.33 293.126C1298.67 292.754 1299.08 292.46 1299.54 292.265C1300 292.07 1300.5 291.98 1301 292H1301.5C1302.6 292.026 1303.65 292.428 1304.49 293.137C1305.33 293.847 1305.89 294.822 1306.1 295.9L1308.2 311.3Z" fill="#66BCFF"/>
<path d="M1310.5 334.5C1310.53 334.705 1310.51 334.913 1310.46 335.112C1310.4 335.311 1310.3 335.496 1310.17 335.656C1310.04 335.816 1309.88 335.947 1309.69 336.04C1309.51 336.134 1309.31 336.188 1309.1 336.2H1308.8C1308.34 336.164 1307.91 335.979 1307.56 335.671C1307.22 335.364 1306.99 334.953 1306.9 334.5L1306 328.1C1305.97 327.891 1305.99 327.679 1306.05 327.477C1306.11 327.276 1306.22 327.092 1306.36 326.938C1306.51 326.784 1306.69 326.665 1306.88 326.589C1307.08 326.513 1307.29 326.483 1307.5 326.5H1307.7C1308.16 326.494 1308.6 326.653 1308.95 326.947C1309.3 327.24 1309.53 327.65 1309.6 328.1L1310.5 334.5Z" fill="#ADB4FF"/>
<path d="M1310.1 354.7C1309 354.674 1307.95 354.272 1307.11 353.563C1306.27 352.853 1305.71 351.878 1305.5 350.8V350.2C1305.41 349.711 1305.43 349.207 1305.56 348.727C1305.69 348.247 1305.93 347.803 1306.26 347.428C1306.58 347.053 1306.99 346.756 1307.45 346.561C1307.91 346.366 1308.4 346.277 1308.9 346.3H1309.4C1310.48 346.321 1311.53 346.709 1312.36 347.399C1313.2 348.088 1313.77 349.041 1314 350.1V350.8C1314.07 351.295 1314.04 351.8 1313.89 352.28C1313.75 352.759 1313.5 353.201 1313.17 353.574C1312.83 353.946 1312.42 354.24 1311.96 354.435C1311.5 354.63 1311 354.72 1310.5 354.7H1310.1Z" fill="#66BCFF"/>
<path d="M1312.7 369.6H1312.2C1311.1 369.593 1310.03 369.198 1309.19 368.485C1308.35 367.772 1307.79 366.786 1307.6 365.7V364.8C1307.56 364.32 1307.62 363.837 1307.78 363.382C1307.93 362.928 1308.19 362.511 1308.52 362.162C1308.85 361.812 1309.25 361.536 1309.7 361.353C1310.14 361.17 1310.62 361.084 1311.1 361.1H1311.6C1312.68 361.121 1313.73 361.509 1314.56 362.198C1315.4 362.888 1315.98 363.84 1316.2 364.9V365.6C1316.29 366.103 1316.27 366.619 1316.13 367.111C1316 367.603 1315.75 368.058 1315.41 368.442C1315.08 368.827 1314.66 369.13 1314.19 369.331C1313.72 369.531 1313.21 369.623 1312.7 369.6Z" fill="#FF78B9"/>
<path d="M1310.6 354.7H1310.1C1309 354.674 1307.95 354.272 1307.11 353.563C1306.27 352.853 1305.71 351.878 1305.5 350.8V350.2C1305.41 349.711 1305.43 349.207 1305.56 348.727C1305.69 348.247 1305.93 347.803 1306.26 347.428C1306.58 347.053 1306.99 346.756 1307.45 346.561C1307.91 346.366 1308.4 346.277 1308.9 346.3H1309.4C1310.48 346.321 1311.53 346.709 1312.36 347.399C1313.2 348.088 1313.77 349.041 1314 350.1V350.8C1314.07 351.287 1314.04 351.783 1313.9 352.255C1313.76 352.727 1313.52 353.164 1313.2 353.534C1312.88 353.905 1312.48 354.201 1312.03 354.403C1311.58 354.604 1311.09 354.705 1310.6 354.7Z" fill="#5865F2"/>
<path d="M1320.1 362.1C1319 362.074 1317.95 361.672 1317.11 360.963C1316.27 360.253 1315.71 359.278 1315.5 358.2V357.6C1315.41 357.111 1315.43 356.607 1315.56 356.127C1315.69 355.647 1315.93 355.203 1316.26 354.828C1316.58 354.453 1316.99 354.156 1317.45 353.961C1317.91 353.766 1318.4 353.677 1318.9 353.7H1319.4C1320.48 353.721 1321.53 354.109 1322.36 354.799C1323.2 355.488 1323.77 356.441 1324 357.5V358.2C1324.09 358.689 1324.07 359.193 1323.94 359.673C1323.81 360.153 1323.57 360.597 1323.24 360.972C1322.92 361.347 1322.51 361.644 1322.05 361.839C1321.59 362.034 1321.1 362.124 1320.6 362.1H1320.1Z" fill="#66BCFF"/>
<path d="M1320.6 362.1H1320.1C1319 362.074 1317.95 361.672 1317.11 360.963C1316.27 360.253 1315.71 359.278 1315.5 358.2V357.6C1315.41 357.111 1315.43 356.607 1315.56 356.127C1315.69 355.647 1315.93 355.203 1316.26 354.828C1316.58 354.453 1316.99 354.156 1317.45 353.961C1317.91 353.766 1318.4 353.677 1318.9 353.7H1319.4C1320.48 353.721 1321.53 354.109 1322.36 354.799C1323.2 355.488 1323.77 356.441 1324 357.5V358.2C1324.09 358.689 1324.07 359.193 1323.94 359.673C1323.81 360.153 1323.57 360.597 1323.24 360.972C1322.92 361.347 1322.51 361.644 1322.05 361.839C1321.59 362.034 1321.1 362.124 1320.6 362.1Z" fill="#5865F2"/>
<path d="M1302.7 362.3H1302.1C1301 362.265 1299.95 361.846 1299.13 361.115C1298.3 360.384 1297.76 359.388 1297.6 358.3V357.4C1297.54 356.926 1297.59 356.445 1297.73 355.99C1297.88 355.535 1298.12 355.117 1298.45 354.765C1298.77 354.413 1299.17 354.136 1299.61 353.952C1300.05 353.768 1300.52 353.682 1301 353.7H1301.6C1302.68 353.749 1303.71 354.16 1304.53 354.868C1305.35 355.576 1305.9 356.538 1306.1 357.6V358.2C1306.21 358.701 1306.2 359.22 1306.07 359.717C1305.95 360.214 1305.72 360.677 1305.39 361.071C1305.06 361.465 1304.65 361.781 1304.19 361.994C1303.72 362.206 1303.21 362.311 1302.7 362.3Z" fill="#FF78B9"/>
<path d="M1140.4 356.4L1130.7 351C1138.31 338.461 1146.7 326.404 1155.8 314.9C1137.9 321.4 1119.1 329.5 1098.3 329.5H1063.5C1061.4 325.2 1060.8 320.8 1060.8 314.2L1103.3 298.7L1119.4 302L1119.9 306.6C1135.3 302.7 1151.2 298.2 1162.7 295.5C1177.2 292.1 1182.1 299.4 1173.7 311.6C1157.5 335.2 1140.4 356.4 1140.4 356.4Z" fill="#29CC7A"/>
<path d="M1073.1 310.2C1073.1 318.7 1073.1 324.7 1077.2 328.1C1078.19 328.995 1079.47 329.493 1080.8 329.5H1085C1074.8 327.8 1074.8 322.3 1074.9 310.2V309.4C1074.9 309.3 1074.8 309.2 1074.8 309.1L1073.1 309.7V310.2Z" fill="#15AD75"/>
<path d="M1140.4 351.9C1156 331.3 1166 317 1170.2 310.3C1174.4 303.6 1175.8 299.4 1154.6 306.6C1133.4 313.8 1117.3 320.3 1112.6 318.5C1107.9 316.7 1109.6 311.9 1109.9 303.4" stroke="#15AD75" stroke-width="2" stroke-linecap="round" stroke-linejoin="round"/>
<path d="M1078 254.8C1070.83 243.764 1064.93 231.957 1060.4 219.6C1059.76 217.545 1059.62 215.368 1059.98 213.247C1060.35 211.126 1061.21 209.122 1062.5 207.4C1069.8 198.6 1079.4 193.9 1092.2 191.7C1093.59 191.546 1094.99 191.941 1096.1 192.8C1111.3 206.1 1115.8 221.1 1118.4 235.7C1118.47 236.543 1118.32 237.388 1117.97 238.158C1117.62 238.927 1117.08 239.595 1116.4 240.1C1108.9 244.7 1104.9 246.1 1104.9 246.1L1106.4 257.2L1078 254.8Z" fill="#FFE75C"/>
<path d="M1092.5 217.5C1099.99 218.196 1107.44 219.331 1114.8 220.9L1118.9 222C1119.05 222.042 1119.19 222.123 1119.3 222.234C1119.41 222.345 1119.49 222.484 1119.53 222.635C1119.57 222.787 1119.57 222.947 1119.53 223.098C1119.49 223.25 1119.41 223.388 1119.3 223.5L1118.4 224.3L1120 230.5C1120.52 232.396 1120.39 234.412 1119.62 236.224C1118.86 238.036 1117.52 239.542 1115.8 240.5L1112.1 242.6L1092.5 217.5Z" fill="#FFE75C"/>
<path d="M1095.71 224.868C1097.61 223.541 1097.23 219.711 1094.86 216.314C1092.49 212.916 1089.03 211.238 1087.12 212.565C1085.22 213.893 1085.6 217.722 1087.97 221.12C1090.34 224.517 1093.8 226.195 1095.71 224.868Z" fill="#FF78B9"/>
<path d="M1107.5 211C1106.3 209.9 1105 209.6 1104.5 210.1C1104 210.6 1104.3 211.4 1105.4 212.2L1106.7 213.5C1107.6 214.5 1108.3 214.3 1108.7 213.8C1109.1 213.3 1108.7 212 1107.5 211Z" fill="black"/>
<path d="M1067.8 202.1C1066.2 186 1067.8 180.6 1071.2 175.9C1074.6 171.2 1076.6 172.6 1076 178.8C1075.64 183.661 1075.67 188.544 1076.1 193.4C1079.06 185.824 1083.36 178.846 1088.8 172.8C1090.41 170.846 1092.57 169.418 1095 168.7C1097.4 168.1 1098.7 169.5 1098 171.8C1096.8 175.7 1093.9 181.9 1086.1 193L1086.9 197.4L1067.8 202.1Z" fill="#FFE75C"/>
<path d="M1114.5 264.3C1123 267.2 1117 293.8 1117 293.8L1118.2 294.7C1119.18 295.451 1119.88 296.516 1120.17 297.717C1120.46 298.918 1120.33 300.183 1119.8 301.3L1119.4 302C1113.5 302 1109.6 302.5 1101.6 308.2C1093.6 313.9 1088.5 314.2 1080.3 314.2H1060.8V307.6C1053.5 304.7 1052.9 301.2 1055.7 296.7C1057.2 294.1 1059.6 290.5 1061.4 287.8C1062.09 286.768 1062.57 285.609 1062.81 284.39C1063.05 283.171 1063.05 281.917 1062.8 280.7C1061.2 272.1 1062.5 267 1062.5 267L1083.7 261.3L1110.6 260.2L1114.5 264.3Z" fill="#2331B5"/>
<path d="M1113.87 288.794C1116.44 288.116 1117.34 283.109 1115.88 277.609C1114.43 272.109 1111.17 268.2 1108.61 268.877C1106.05 269.554 1105.15 274.562 1106.6 280.061C1108.05 285.561 1111.31 289.471 1113.87 288.794Z" fill="black"/>
<path d="M1126.9 351.6C1129.3 349.1 1134.5 344.9 1134.5 344.9C1137.8 344.9 1142.8 345.5 1145 354.6L1147.7 365.3C1158 367.2 1158.1 370.1 1156.7 373.9V375.6C1156.7 375.812 1156.62 376.016 1156.47 376.166C1156.32 376.316 1156.11 376.4 1155.9 376.4H1138.7L1126.9 351.6Z" fill="white"/>
<path d="M1155.9 376.4C1156.11 376.4 1156.32 376.316 1156.47 376.166C1156.62 376.016 1156.7 375.812 1156.7 375.6V373.9C1149.9 373.9 1144.9 374.6 1142.4 370.2C1139.72 364.876 1137.35 359.4 1135.3 353.8C1134.4 351.2 1132.5 348.1 1129.6 349L1126.9 351.6L1138.7 376.4H1155.9Z" fill="#FF78B9"/>
<path d="M1148.6 376.4C1146.79 376.428 1145.01 375.992 1143.41 375.134C1141.82 374.277 1140.47 373.026 1139.5 371.5C1135.8 365.9 1133.5 359.2 1132.1 355.1C1130.7 351 1126.2 349.4 1125.8 354.6C1125.4 359.8 1128.1 363.8 1132.3 374.2C1132.53 374.858 1132.97 375.425 1133.54 375.821C1134.12 376.216 1134.8 376.419 1135.5 376.4H1148.6Z" fill="black"/>
<path d="M1114.5 264.3L1130.3 269.7C1131.9 247.6 1138.6 241.3 1146.4 223.7C1152 211.2 1154.6 205.5 1155.7 203.3C1155.86 202.933 1156.13 202.622 1156.47 202.408C1156.8 202.194 1157.2 202.087 1157.6 202.1H1158.2C1158.51 202.099 1158.81 202.162 1159.09 202.284C1159.37 202.407 1159.62 202.587 1159.83 202.813C1160.04 203.039 1160.2 203.306 1160.29 203.597C1160.39 203.887 1160.43 204.195 1160.4 204.5C1159.41 210.407 1157.83 216.202 1155.7 221.8C1160.4 218.6 1162.5 218.6 1164.7 221.9C1170.1 219.1 1172.1 219 1174 223.2C1175.9 227.4 1175.6 228.2 1174.6 231.6C1173.6 235 1172.1 235.3 1169.8 235.3C1169.8 258.5 1168.3 267.2 1157.4 282.8C1147.7 296.7 1147.2 295 1134 290.8C1126.4 288.4 1118.9 285.7 1114 283.8C1111.16 282.766 1108.77 280.768 1107.26 278.155C1105.74 275.541 1105.19 272.478 1105.7 269.5C1106.6 265.3 1109.4 262.6 1114.5 264.3Z" fill="#FFE75C"/>
<path d="M1114.5 264.3C1115.04 263.663 1115.54 262.996 1116 262.3C1116.27 261.929 1116.45 261.505 1116.54 261.056C1116.63 260.608 1116.62 260.145 1116.52 259.7C1116.42 259.254 1116.22 258.836 1115.94 258.474C1115.66 258.112 1115.3 257.814 1114.9 257.6C1087.6 242.6 1078 240.8 1063 240.8C1053.3 240.8 1053.8 243.3 1054.7 247.9C1047.8 254.3 1047.9 256.5 1052.7 262.8C1057.5 269.1 1059 271.6 1063.5 271.6C1068 271.6 1078.5 271.7 1087.7 267C1096.9 262.3 1101.3 259.9 1114.5 264.3Z" fill="white"/>
<path d="M1114.1 219C1103 217.1 1091.7 215.9 1091.6 215.9C1091.49 215.886 1091.37 215.896 1091.26 215.93C1091.15 215.963 1091.05 216.02 1090.97 216.096C1090.88 216.172 1090.82 216.265 1090.77 216.369C1090.72 216.473 1090.7 216.586 1090.7 216.7C1090.67 216.924 1090.72 217.152 1090.85 217.337C1090.98 217.522 1091.18 217.652 1091.4 217.7C1091.6 217.7 1103.4 218.9 1114.8 220.9C1114.6 220.3 1114.4 219.7 1114.1 219Z" fill="black"/>
<path d="M1091.8 215.4C1091.21 216.263 1090.67 217.165 1090.2 218.1" stroke="black" stroke-width="2" stroke-linecap="round" stroke-linejoin="round"/>
<path d="M1130.3 269.7L1136.9 271.6" stroke="black" stroke-width="2" stroke-linecap="round" stroke-linejoin="round"/>
<path d="M1073.4 200.7C1073.3 201.077 1073.16 201.445 1073 201.8C1072.93 201.961 1072.82 202.102 1072.68 202.207C1072.54 202.312 1072.37 202.379 1072.2 202.4H1071.9C1071.79 202.367 1071.69 202.312 1071.6 202.236C1071.52 202.161 1071.45 202.068 1071.4 201.964C1071.35 201.86 1071.33 201.746 1071.33 201.632C1071.33 201.517 1071.35 201.404 1071.4 201.3C1071.5 201 1073.6 194.8 1075.5 190.4C1075.58 190.222 1075.72 190.08 1075.9 190C1075.9 191.2 1076 192.3 1076.1 193.5C1076.2 194.7 1074 198.9 1073.4 200.7Z" fill="#FFC619"/>
<path d="M1166.8 265C1167.16 263.937 1167.26 262.805 1167.11 261.693C1166.95 260.582 1166.54 259.523 1165.9 258.6C1165.46 258.077 1164.95 257.607 1164.4 257.2C1163.16 256.492 1161.74 256.145 1160.31 256.198C1158.88 256.251 1157.49 256.702 1156.3 257.5C1156.9 254.1 1157.7 247.9 1157.1 243.2C1156.5 238.5 1154.7 239.1 1153.6 238.9C1150.4 238.3 1146 241.7 1142.1 247.8C1141.4 244.5 1140.4 242.9 1138.8 242.5C1138.36 242.412 1137.91 242.473 1137.51 242.672C1137.11 242.871 1136.79 243.198 1136.6 243.6L1135.1 247.2C1137.1 244.2 1138.2 244.2 1138.5 244.2C1138.8 244.2 1140.1 245 1140.8 250.4C1140.82 250.578 1140.9 250.744 1141.03 250.871C1141.16 250.998 1141.32 251.079 1141.5 251.1C1141.69 251.136 1141.88 251.117 1142.06 251.046C1142.24 250.975 1142.39 250.855 1142.5 250.7C1146.6 243.2 1151 240.2 1153.3 240.6C1155.6 241 1155.2 242.3 1155.3 243.5C1156.2 249.6 1154.2 259.3 1154.2 259.4C1154.17 259.573 1154.19 259.75 1154.27 259.91C1154.34 260.069 1154.45 260.205 1154.6 260.3C1154.78 260.382 1154.97 260.416 1155.16 260.398C1155.36 260.381 1155.54 260.312 1155.7 260.2C1157.9 257.9 1161.3 257.3 1163.4 258.7C1165.5 260.1 1166.5 265.2 1164.2 271.5C1165.25 269.413 1166.12 267.238 1166.8 265Z" fill="#FFF4B3"/>
<path d="M1150.2 224.1C1153.6 222.2 1154.8 221.1 1157.8 224.1C1161.8 222 1162.6 222 1164.8 225.2" stroke="#FFC619" stroke-width="2" stroke-linecap="round" stroke-linejoin="round"/>
<path d="M1171.6 234.9C1171.5 232.1 1171.2 227.8 1171.1 227.7C1171.1 227.586 1171.08 227.473 1171.03 227.369C1170.99 227.265 1170.92 227.172 1170.83 227.096C1170.75 227.02 1170.65 226.963 1170.54 226.93C1170.43 226.896 1170.31 226.886 1170.2 226.9C1170.09 226.899 1169.97 226.923 1169.87 226.969C1169.77 227.015 1169.67 227.083 1169.6 227.169C1169.52 227.254 1169.46 227.354 1169.43 227.463C1169.4 227.572 1169.39 227.687 1169.4 227.8C1169.4 227.9 1169.8 232.2 1169.8 235C1169.8 235.054 1169.8 235.109 1169.82 235.16C1169.84 235.212 1169.86 235.259 1169.9 235.3H1171.5L1171.6 234.9Z" fill="black"/>
<path d="M1172.7 231.5H1170.5C1170.38 231.5 1170.26 231.477 1170.16 231.432C1170.05 231.386 1169.95 231.32 1169.86 231.236C1169.78 231.153 1169.71 231.054 1169.67 230.944C1169.62 230.835 1169.6 230.718 1169.6 230.6C1169.62 230.379 1169.73 230.175 1169.9 230.027C1170.06 229.88 1170.28 229.799 1170.5 229.8H1172.7C1172.92 229.799 1173.14 229.88 1173.3 230.027C1173.47 230.175 1173.57 230.379 1173.6 230.6C1173.6 230.718 1173.58 230.835 1173.53 230.944C1173.49 231.054 1173.42 231.153 1173.34 231.236C1173.25 231.32 1173.15 231.386 1173.04 231.432C1172.93 231.477 1172.82 231.5 1172.7 231.5Z" fill="black"/>
<path d="M1141.5 289.4C1143.61 289.348 1145.72 289.148 1147.8 288.8" stroke="#FFC619" stroke-width="2" stroke-linecap="round" stroke-linejoin="round"/>
<path d="M1077.5 311.2C1066.1 309.8 1061 307.7 1060.9 307.7H1060.8V309.5C1062.5 310.1 1067.6 311.7 1077.3 313H1077.4C1077.62 313.001 1077.84 312.92 1078 312.773C1078.17 312.625 1078.28 312.421 1078.3 312.2C1078.31 312.082 1078.3 311.962 1078.27 311.847C1078.24 311.733 1078.18 311.626 1078.11 311.533C1078.03 311.44 1077.94 311.363 1077.84 311.305C1077.73 311.248 1077.62 311.212 1077.5 311.2Z" fill="black"/>
<path d="M1119.9 306.6C1117.35 307.413 1115.04 308.858 1113.2 310.8" stroke="black" stroke-width="2" stroke-linecap="round" stroke-linejoin="round"/>
<path d="M1156.7 314.9C1160.74 313.112 1164.65 311.04 1168.4 308.7" stroke="black" stroke-width="2" stroke-linecap="round" stroke-linejoin="round"/>
<path d="M1158.7 314L1164 314.2" stroke="black" stroke-width="2" stroke-linecap="round" stroke-linejoin="round"/>
<path d="M1055.6 247.4C1072.2 245.8 1084 249.6 1100.3 256.9C1084 255.8 1064.8 255.2 1064.8 255.2" stroke="#BAE8FF" stroke-width="2" stroke-linecap="round" stroke-linejoin="round"/>
<path d="M1051.1 329.5H1117.7C1118.65 329.5 1119.57 329.879 1120.25 330.554C1120.92 331.23 1121.3 332.145 1121.3 333.1V376.4H1047.5V333.1C1047.5 332.145 1047.88 331.23 1048.55 330.554C1049.23 329.879 1050.15 329.5 1051.1 329.5Z" fill="#8CD9FF"/>
<path d="M1114.7 329.5H1117.7C1118.65 329.5 1119.57 329.879 1120.25 330.554C1120.92 331.23 1121.3 332.145 1121.3 333.1V376.4H1111.1V333.1C1111.1 332.627 1111.19 332.159 1111.37 331.722C1111.55 331.286 1111.82 330.889 1112.15 330.554C1112.49 330.22 1112.89 329.955 1113.32 329.774C1113.76 329.593 1114.23 329.5 1114.7 329.5Z" fill="#45AAF7"/>
<path d="M1057.3 362.6H1101.3C1102.1 362.6 1102.86 362.916 1103.42 363.479C1103.98 364.041 1104.3 364.804 1104.3 365.6V376.4H1054.4V365.6C1054.4 364.821 1054.7 364.073 1055.24 363.513C1055.78 362.953 1056.52 362.626 1057.3 362.6Z" fill="#45AAF7"/>
<path d="M1059.3 329.5V376.4" stroke="#5865F2" stroke-width="2" stroke-miterlimit="10"/>
<path d="M1099.2 329.5V376.4" stroke="#5865F2" stroke-width="2" stroke-miterlimit="10"/>
<path d="M1101.7 333.1H1056.8C1055.42 333.1 1054.3 334.219 1054.3 335.6V351.59C1054.3 352.971 1055.42 354.09 1056.8 354.09H1101.7C1103.08 354.09 1104.2 352.971 1104.2 351.59V335.6C1104.2 334.219 1103.08 333.1 1101.7 333.1Z" fill="black"/>
<path d="M1110.2 336.5C1110.06 336.484 1109.93 336.499 1109.8 336.543C1109.67 336.588 1109.55 336.661 1109.46 336.757C1109.36 336.854 1109.29 336.97 1109.24 337.099C1109.2 337.228 1109.18 337.365 1109.2 337.5C1109.2 337.765 1109.31 338.02 1109.49 338.207C1109.68 338.395 1109.93 338.5 1110.2 338.5H1121.3V336.5H1110.2Z" fill="#5865F2"/>
<path d="M1109.2 341.8C1109.18 341.935 1109.2 342.072 1109.24 342.201C1109.29 342.33 1109.36 342.446 1109.46 342.543C1109.55 342.639 1109.67 342.712 1109.8 342.757C1109.93 342.801 1110.06 342.816 1110.2 342.8H1121.3V340.8H1110.2C1109.93 340.8 1109.68 340.905 1109.49 341.093C1109.31 341.28 1109.2 341.535 1109.2 341.8Z" fill="#5865F2"/>
<path d="M1109.2 346.2C1109.2 346.465 1109.31 346.72 1109.49 346.907C1109.68 347.095 1109.93 347.2 1110.2 347.2H1121.3V345.2H1110.2C1110.06 345.184 1109.93 345.199 1109.8 345.243C1109.67 345.288 1109.55 345.361 1109.46 345.457C1109.36 345.554 1109.29 345.671 1109.24 345.799C1109.2 345.928 1109.18 346.065 1109.2 346.2Z" fill="#5865F2"/>
<path d="M1049.3 337.5C1049.28 337.758 1049.16 337.999 1048.98 338.182C1048.8 338.365 1048.56 338.477 1048.3 338.5H1047.5V336.5H1048.3C1048.57 336.5 1048.82 336.605 1049.01 336.793C1049.19 336.98 1049.3 337.235 1049.3 337.5Z" fill="#5865F2"/>
<path d="M1049.3 341.8C1049.3 342.065 1049.19 342.32 1049.01 342.507C1048.82 342.695 1048.57 342.8 1048.3 342.8H1047.5V340.8H1048.3C1048.56 340.823 1048.8 340.935 1048.98 341.118C1049.16 341.301 1049.28 341.542 1049.3 341.8Z" fill="#5865F2"/>
<path d="M1049.3 346.2C1049.28 346.458 1049.16 346.699 1048.98 346.882C1048.8 347.065 1048.56 347.178 1048.3 347.2H1047.5V345.2H1048.3C1048.57 345.2 1048.82 345.305 1049.01 345.493C1049.19 345.68 1049.3 345.935 1049.3 346.2Z" fill="#5865F2"/>
<path d="M1088.9 334.6H1059.6C1058.88 334.6 1058.3 335.182 1058.3 335.9V349.75C1058.3 350.468 1058.88 351.05 1059.6 351.05H1088.9C1089.62 351.05 1090.2 350.468 1090.2 349.75V335.9C1090.2 335.182 1089.62 334.6 1088.9 334.6Z" fill="#FFF4B3"/>
<path d="M1101.3 351.1H1093.3C1092.8 351.1 1092.4 351.503 1092.4 352V353.22C1092.4 353.717 1092.8 354.12 1093.3 354.12H1101.3C1101.8 354.12 1102.2 353.717 1102.2 353.22V352C1102.2 351.503 1101.8 351.1 1101.3 351.1Z" fill="#FF78B9"/>
<path d="M1070.1 336.5C1070.1 338.94 1071.07 341.28 1072.79 343.005C1074.52 344.731 1076.86 345.7 1079.3 345.7C1081.74 345.7 1084.08 344.731 1085.81 343.005C1087.53 341.28 1088.5 338.94 1088.5 336.5C1088.49 335.862 1088.42 335.226 1088.3 334.6H1070.3C1070.13 335.218 1070.06 335.86 1070.1 336.5Z" fill="#29CC7A"/>
<path d="M1061 351.1H1076C1075.15 349.903 1074.02 348.927 1072.72 348.253C1071.42 347.58 1069.97 347.228 1068.5 347.228C1067.03 347.228 1065.58 347.58 1064.28 348.253C1062.98 348.927 1061.85 349.903 1061 351.1Z" fill="#29CC7A"/>
</g>
<defs>
<clipPath id="clip0_22_13">
<rect width="615" height="360" fill="white" transform="translate(1023 17)"/>
</clipPath>
</defs>
</svg>
